<svg version="1.2" xmlns="http://www.w3.org/2000/svg" viewBox="0 0 1552 1002" width="1552" height="1002"><style>.a{fill:#2f2e73}</style><path class="a" d="m121.1 0h-105.2c-8.8 0-15.9 7.1-15.9 15.9v636.9c0 8.8 7.1 15.9 15.9 15.9h105.2c8.7 0 15.8-7.1 15.8-15.9v-636.9c0-8.8-7.1-15.9-15.8-15.9z"/><path class="a" d="m267.4 425.2c17.9-63.8 63.8-135 117.9-174 7.8-5.6 12.7-14.6 12.7-24.3v-211c0-8.8-7.1-15.9-15.9-15.9h-105.2c-8.7 0-15.8 7.1-15.8 15.9v408.4c0 3.8 5.3 4.6 6.3 0.9z"/><path class="a" d="m837.3 0h-105.3c-8.7 0-15.8 7.1-15.8 15.9v235.4c0 8.9-7.3 16.1-16.2 16.1h-131.7c-169.5 0-307.3 137.5-307.3 307.2v78.2c0 8.8 7.1 15.9 15.9 15.9h105.2c8.8 0 15.9-7.1 15.9-15.9v-78.2c0-94.1 76.3-170.4 170.3-170.4h131.9c8.8 0.1 16 7.3 16 16.1v232.5c0 8.8 7.1 15.9 15.8 15.9h105.3c8.7 0 15.9-7.1 15.9-15.9v-636.9c0-8.8-7.2-15.9-15.9-15.9z"/><path class="a" d="m1536.1 0h-105.2c-8.8 0-15.9 7.1-15.9 15.9v78.2c0 94.1-76.3 170.4-170.3 170.4h-131.9c-8.8-0.1-16-7.3-16-16.1v-232.5c0-8.8-7.1-15.9-15.8-15.9h-105.3c-8.7 0-15.8 7.1-15.8 15.9v636.9c0 8.8 7.1 15.9 15.8 15.9h105.3c8.7 0 15.8-7.1 15.8-15.9v-235.4c0-8.9 7.3-16.1 16.2-16.1h131.7c169.5 0 307.3-137.6 307.3-307.2v-78.2c0-8.8-7.1-15.9-15.9-15.9z"/><path class="a" d="m1545.7 243.5c-17.9 63.8-63.8 135-117.9 174-7.9 5.6-12.7 14.6-12.7 24.3v211c0 8.8 7.1 15.9 15.8 15.9h105.2c8.8 0 15.9-7.1 15.9-15.9v-408.4c0-3.8-5.4-4.6-6.3-0.9z"/><path class="a" d="m1194.1 828.3c-50.7 0-72.1 26.4-75.6 51-0.1 1 0.6 1.9 1.7 1.9h34.7c1.6 0 2.9-0.6 3.5-2.5 3.4-10.1 11.3-20 32.7-20 22.5 0 37.5 11 37.5 30.6v6.2h-29c-61.7 0-85.6 18.4-85.6 51.5 0 33 25.4 54.4 61 54.4 26.6 0 46.9-11.4 53.5-24.2v19.3c0 1.1 0.9 1.9 2 1.9h33.5c1.1 0 2-0.9 2-1.9v-103.2c0-40.3-22.9-65-71.8-65zm34.4 106.5c0 22.2-17.9 39.3-43.2 39.3-20.2 0-32.4-10.9-32.4-26.6 0-18 15.9-24.9 58.9-24.9h16.6v12.2z"/><path class="a" d="m475.4 828.3c-50.8 0-72.1 26.4-75.7 51-0.1 1 0.6 1.9 1.7 1.9h34.7c1.6 0 2.9-0.6 3.6-2.5 3.3-10.1 11.2-20 32.6-20 22.5 0 37.5 11 37.5 30.6v6.2h-29c-61.7 0-85.6 18.4-85.6 51.5 0 33 25.4 54.4 61 54.4 26.6 0 46.9-11.4 53.5-24.2v19.3c0 1.1 0.9 1.9 2 1.9h33.5c1.1 0 2-0.9 2-1.9v-103.2c0-40.3-22.8-65-71.8-65zm34.4 106.5c0 22.2-17.9 39.3-43.2 39.3-20.2 0-32.4-10.9-32.4-26.6 0-18 15.9-24.9 59-24.9h16.5v12.2z"/><path class="a" d="m1380 829.9c-2.1-0.3-5.1-0.6-7.8-0.6-16.6 0-34.5 9.2-39.8 26.6v-22.6c0-1.1-0.8-1.9-1.9-1.9h-33.1c-1.1 0-2 0.9-2 1.9v163.3c0 1.1 0.9 1.9 2 1.9h34.3c1.1 0 1.9-0.9 1.9-1.9v-84.6c0-30.4 13.1-47.6 36.7-47.6 3.9 0 7.2 0.5 9.5 0.9 1 0.3 1.9-0.3 1.9-1.4v-32c0-1.1-0.7-1.8-1.7-2z"/><path class="a" d="m1023.2 861c21.8 0 33.4 11.2 37.3 28.7 0.4 1.9 1.5 2.6 3.2 2.6h36.3c1.1 0 1.8-0.5 1.8-1.4 0-0.4-0.1-1.1-0.2-2-6.3-36.1-33.7-60.5-79.1-60.5-56.6 0-86.6 38-86.6 86.5 0 48.5 30 86.5 86.6 86.5 45.3 0 72.8-24.4 79.1-60.5 0.1-0.8 0.2-1.6 0.2-1.9 0-1-0.7-1.5-1.8-1.5h-36.3c-1.7 0-2.8 0.8-3.2 2.6-3.9 17.5-15.5 28.7-37.3 28.7-31.9 0-48.2-23.6-48.2-53.9 0-30.3 16.3-53.9 48.2-53.9z"/><path class="a" d="m855.1 828.6c-22.3 0-41.4 8.7-52.6 26.9v-77.9c0-1.1-0.9-2-2-2h-34.3c-1 0-1.9 0.9-1.9 2v218.9c0 1.1 0.9 2 1.9 2h34.3c1.1 0 2-0.9 2-2v-91.3c0-25.4 15-44.3 40.1-44.3 21.1 0 34.5 13.4 34.5 41.5v94.1c0 1.1 0.9 1.9 1.9 1.9h34.5c1.1 0 2-0.9 2-1.9v-98.6c0-46.2-24.1-69.3-60.4-69.3z"/><path class="a" d="m741.2 831.4h-40.3v-39.2c0-1-0.8-1.9-1.9-1.9h-34.3c-1.1 0-1.9 0.9-1.9 1.9v39.2h-27.1c-1.1 0-1.9 0.8-1.9 1.9v27.8c0 1.1 0.9 2 1.9 2h27v66.8c0 44.7 26.2 70.6 71 70.6h7.4c1.1 0 1.9-0.8 1.9-1.9v-27.8c0-1.1-0.8-2-1.9-2h-1.7c-28 0-38.6-14.1-38.6-38.2v-67.6h40.3c1.1 0 1.9-0.8 1.9-1.9v-27.8c0-1.1-0.8-2-1.9-2z"/><path class="a" d="m578.7 775.7h34.2c1.1 0 2 0.9 2 2v218.9c0 1.1-0.9 2-2 2h-34.2c-1.1 0-2-0.9-2-2v-218.9c0-1.1 0.9-1.9 1.9-1.9z"/><path class="a" d="m1469.1 828.5c-53.6 0-85.5 38-85.5 86.5 0 48.5 34.5 86.5 86.9 86.5 41.1 0 69.5-21.8 77.4-50.6 0.2-0.9 0.3-1.2 0.3-1.5 0-0.9-0.7-1.6-1.8-1.6h-36.7c-1.7 0-2.4 1-3.2 2.7-4.8 10-15.6 18.4-35.5 18.4-29.3 0-46.6-18.4-48.9-43h127.9c1.1 0 1.9-0.8 1.9-1.9v-9.4c0-49.5-30.3-86-82.9-86zm-45.7 68c1.9-19.6 17.4-37 45.2-37 27.9 0 43.2 17.7 45 37z"/><path class="a" d="m298.6 828.5c-53.6 0-85.5 38-85.5 86.5 0 48.5 34.5 86.5 86.9 86.5 41.1 0 69.5-21.8 77.4-50.6 0.2-0.9 0.3-1.2 0.3-1.5 0-0.9-0.7-1.6-1.8-1.6h-36.7c-1.7 0-2.4 1-3.2 2.7-4.8 10-15.5 18.4-35.5 18.4-29.3 0-46.6-18.4-48.9-43h127.9c1.1 0 2-0.8 2-1.9v-9.4c0-49.5-30.4-86-83-86zm-45.6 68c1.8-19.6 17.3-37 45.2-37 27.8 0 43.1 17.7 44.9 37z"/><path class="a" d="m184.8 778.6h-35.3c-1.1 0-2 0.9-2 1.9v83.4h-108.2v-83.4c0-1.1-0.9-1.9-2-1.9h-35.3c-1.1 0-2 0.9-2 1.9v216c0 1.1 0.9 1.9 2 1.9h35.3c1.1 0 2-0.9 2-1.9v-96.2h108.1v96.2c0 1.1 0.9 1.9 2 1.9h35.4c1.1 0 2-0.9 2-1.9v-216c0-1.1-0.9-1.9-2-1.9z"/></svg>