<svg version="1.2" xmlns="http://www.w3.org/2000/svg" viewBox="0 0 1552 423" width="1552" height="423"><style>.a{fill:#ffc70a}</style><path fill-rule="evenodd" class="a" d="m1552 0v423h-1552v-423z"/><path  d="m935 293.3c-20.7 0-41.4-3.8-53.6-8.5v-166.4h43.2v55.5c5.7-1.9 15.1-3.8 22.6-3.8 36.7 0 62.1 20.7 62.1 56.4 0.9 46.1-26.4 66.8-74.3 66.8zm3.7-95c-4.7 0-10.3 1-14.1 2.9v62.9c2.8 1 7.5 1.9 12.2 1.9 17.9 0 28.3-12.2 28.3-34.8 0.9-20.6-8.5-32.9-26.4-32.9z"/><path  d="m1082.6 293.3c-45.1 0-66.7-14.1-66.7-39.5 0-31 38.5-38.5 80.9-40.4v-4.7q0-14.1-22.6-14.1c-14.1 0-30.1 3.7-40.5 7.5l-10.3-24.4c12.2-3.8 30.1-9.4 56.4-9.4 38.6 0 58.3 13.1 58.3 44.1v71.5c-11.2 5.6-32.9 9.4-55.5 9.4zm14.2-56.4c-23.6 0.9-41.4 2.8-41.4 16.9 0 9.4 9.4 15 25.4 15 5.6 0 13.1-0.9 16-1.8z"/><path  d="m1234.1 290.5v-77.1c0-9.4-5.7-16-20.7-16-8.5 0-15.1 2.8-15.1 2.8v90.3h-43.2v-111.9c16-4.7 34.8-9.4 59.2-9.4 44.2 0 64 15 64 40.4v80.9z"/><path  d="m1380.8 290.5l-43.3-59.3h-0.9v59.3h-43.3v-172.1h43.3v104.4h0.9l39.5-50.8h49l-44.2 55.5 47.9 63z"/><path  d="m800.5 338.4h-45.2l21.6-47-53.6-118.4h47.1l29.1 83.6 28.2-83.6h47.1z"/><path fill-rule="evenodd" d="m574.7 132.5h-50.8l-33.8 97.8-33-97.8h-50.8l-22.5 158h41.3l13.2-109.1 38.6 109.1h27.3l38.5-109.1 13.2 109.1h41.4z"/><path  d="m669.7 293.3c-45.1 0-66.8-14.1-66.8-39.5 0-31 38.6-38.5 80.9-40.4v-4.7q0-14.1-22.6-14.1c-14.1 0-30.1 3.7-40.4 7.5l-10.4-23.5c12.3-3.8 33.9-9.4 56.5-9.4 38.5 0 58.3 13.2 58.3 44.2v71.4c-11.3 4.7-32.9 8.5-55.5 8.5zm14.1-56.4c-23.5 0.9-41.4 2.8-41.4 16.9 0 9.4 9.4 15 25.4 15 5.7 0 13.2-0.9 16-1.8z"/><path  d="m211.6 79c-73.3 0-132.6 59.2-132.6 132.5 0 73.3 59.3 132.5 132.6 132.5 73.4 0 132.7-59.2 132.7-132.5 0-73.3-59.3-132.5-132.7-132.5zm0 253.8c-66.8 0-121.3-54.6-121.3-121.3 0-66.7 54.5-121.3 121.3-121.3 66.8 0 121.4 54.6 121.4 121.3 0 66.7-54.6 121.3-121.4 121.3z"/><path  d="m159 204.9c-9.4-2.8-17.9 8.5-22.6 16.9 1.9-11.2 16-29.1 22.6-16.9z"/><path  d="m138.3 205.9c2.8-11.3 10.3-15.1 15-11.3-5.6 0.9-10.3 3.7-15 11.3z"/><path  d="m162.7 222.8c4.7-3.8 4.7-10.4-2.8-12.2-5.6-1.9-17.9 8.4-18.8 19.7 3.8-5.6 17.9-16.9 21.6-7.5z"/><path  d="m238 251.9c0.9-14.1-13.2-20.7-16-35.7-2.8-15 21.6-38.5 6.6-62 29.1 23.5 6.6 37.6 20.7 56.4-5.7-1.9-11.3-6.6-13.2-9.4-7.5 11.2 20.7 25.3 1.9 50.7z"/><path  d="m191.9 136.3c3.8 0 9.4 2.8 6.6 4.7-8.5 7.5-18.8 4.7-27.3 12.2 2.8-8.4 18.8-10.3 20.7-16.9z"/><path  d="m217.3 147.6c3.7-3.8 0-9.4-13.2-10.4 14.1 6.6-8.5 8.5-9.4 20.7-7.5 2.8-13.2-1.9-16.9 1.9-3.8 2.8-7.6 0.9-6.6-2.8-4.7 1.9-3.8 8.4 0.9 10.3 1 0 1.9 1 1 1.9-4.7 4.7-6.6 8.5-1.9 12.2 2.8-4.7 3.7-6.6 6.6-9.4 2.8 1.9 7.5 1 14.1-6.6h0.9c-5.6 17.9-18.8 20.7-22.6 19.8 2.9 3.7 19.8 6.6 21.7-1 4.7-16.9 21.6-24.4 7.5-24.4 2.8-4.7 15.1-9.4 17.9-12.2zm-35.8 20.7c-0.9 0-1.8-1.9-1.8-3.8 0.9 3.8 4.7 1.9 2.8-2.8 0.9 0 2.8 0 6.6 0-3.8 1.9-5.7 6.6-7.6 6.6z"/><path  d="m224.8 138.2c6.6 4.7 10.3 7.5 15.1 13.1 0.9-7.5-3.8-21.6-9.4-25.3-2.9-1.9-6.6 8.4-5.7 12.2z"/><path  d="m114.8 196.5c4.7-11.3 15-25.4 32.9-35.8 3.7-10.3 2.8-17.8 45.1-33.8 1-6.6 1-14.1 2.9-14.1 1.8 0 8.4 2.8 12.2 9.4 1.9 0 3.7 0 4.7-0.9 0.9-3.8 3.7-14.1 6.6-18.8 2.8-4.7 9.4-5.7 16.9 0.9 7.5 6.6 13.2 9.4 24.5 22.6 9.3 3.7 23.5 9.4 35.7 24.4-5.6-3.8-11.3-4.7-16.9-5.6 10.3 8.4 16.9 23.5 11.3 45.1-1.9-19.8-17-28.2-25.4-34.8 4.7 16.9-16 11.3-22.6-1.9 1.9 1 4.7 1 5.6 0-0.9-25.4-13.1-40.4-17.8-45.1-6.6-5.6-10.4 8.5-13.2 18.8-1 3.8-3.8 5.6-7.5 5.6 0.9-0.9 1.8-4.7 1.8-5.6-10.3 0.9-22.5 7.5-30.1 10.3-18.8 8.5-23.5 13.2-27.2 27.3-15.1 6.6-32 24.4-39.5 32z"/><path  d="m208.8 192.7c1.9 1.9 14.1 20.7 0 45.1 3.8-17.8-6.6-50.7-18.8-33.8 8.5 3.7 11.3 10.3 8.5 16.9-3.8-6.6-12.3-13.2-20.7-10.3-3.8 1.8-9.4 1.8-14.1-4.7-5.7-7.6 3.7-17.9-12.3-17 18.9-9.4 13.2 9.4 22.6 11.3 10.4 2.8 12.2-3.7 15.1-8.4 2.8-3.8 8.4-6.6 14.1-2.9 2.8-8.4-1-21.6 6.6-28.2 2.8-2.8 12.2-1.8 16.9 1.9-6.6 0-14.1 8.5-17.9 30.1z"/><path  d="m304.8 160.7c9.4 32.9 6.5 65.8-2.9 84.6 1-12.2-9.4-29.1-4.7-49.8-19.7 19.8 11.3 66.8-33.8 97.8 6.5-11.3 9.4-37.6 7.5-48 2.8 1 4.7 3.8 6.6 6.6 3.7-12.2 4.7-30.1-2.8-47.9 2.8 0 7.5 2.8 10.3 4.7 0.9-27.3-18.8-30.1-22.6-37.6 0 8.4 9.4 15 11.3 25.4-6.6-2.9-11.3-3.8-15-2.9 4.7 3.8 16 25.4 13.1 43.3-4.7-3.8-9.4-5.7-14.1-6.6 5.7 9.4 8.5 32.9 1 44.2 0-2.8-1-9.4-3.8-12.2-3.8 13.1-14.1 18.8-20.7 20.6 8.5-9.4 7.5-25.3-5.6-30-11.3-3.8-26.4 3.7-33 31.9-8.4 2.8-33.8-2.8-18.8-19.7 9.4 2.8 33-12.2 31.1-23.5-1.9-15.1-16-20.7-27.3-20.7-14.1 0-22.6 13.2-33.9 18.8-9.4-1.9-12.2-2.8-16.9-15-0.9-7.6 7.5-13.2 7.5-20.7-6.6 1.9-8.4-8.5-21.6 1.9-1-1.9 0.9-6.6 0.9-6.6-4.7 4.7-5.6 9.4-5.6 10.3 1.9 4.7 5.6 8.5 12.2 13.2 7.5 20.7 16 22.5 23.5 23.5 1 1.9 7.6 9.4 15.1 10.3-1-3.7-1.9-15-1-16.9 17-16.9 29.2-6.6 30.1-1.9-15 2.8-4.7 34.8-29.1 20.7-1 2.8 0 11.3 3.7 16 2.9 21.6 30.1 16 38.6 19.7-0.9-20.7 10.4-36.6 20.7-34.8 10.3 1 12.2 17.9-4.7 32.9 3.8 1.9 22.6-0.9 32-7.5 0.9 5.7-5.7 20.7-14.1 32 67.7-17.9 100.6-95.9 66.8-156.1zm-181.6 58.3c-3.7-2.8-8.5-7.5-9.4-10.3 0.9-1 3.8-3.8 7.5-4.7 2.9-1 4.7 0.9 3.8 1.9 0 0.9-2.8 0.9-3.8 2.8-0.9 2.8 1.9 3.7 2.9 5.6 0.9 1 1.8 2.8-1 4.7zm23.5 23.5c1-1.9 4.7-4.7 5.7-4.7-1 5.7 0.9 12.2 0.9 12.2 0 0-5.6-3.7-6.6-7.5zm37.7 5.7c1.8 0 3.7 1.8 4.7 0.9 1.8-0.9 0-6.6-1-7.5 1.9 0 8.5 0 7.5 2.8-0.9 5.6-4.7 8.5-14.1 12.2 1.9-1.9 1.9-5.6 2.9-8.4zm-18.9 20.6c-0.9-0.9-3.7-3.7-2.8-7.5 2.8 1.9 7.5 2.8 7.5 2.8 0 0-1.8 3.8-4.7 4.7z"/></svg>