<?xml version="1.0" encoding="UTF-8"?>
<svg id="SVGRoot" width="500" height="317.53" version="1.1" viewBox="0 0 500 317.53321" xmlns="http://www.w3.org/2000/svg" xmlns:cc="http://creativecommons.org/ns#" xmlns:dc="http://purl.org/dc/elements/1.1/" xmlns:rdf="http://www.w3.org/1999/02/22-rdf-syntax-ns#"><metadata><rdf:RDF><cc:Work rdf:about=""><dc:format>image/svg+xml</dc:format><dc:type rdf:resource="http://purl.org/dc/dcmitype/StillImage"/><dc:title/></cc:Work></rdf:RDF></metadata><g transform="translate(-82.45 -13.618)"><g fill="#66634e"><path d="m295.56 14.723c1.6349 0 1.2677 2.5354 4.8003 2.5354 2.0059 0 2.2726-1.0049 4.6457-1.0049 6.8681 0 9.3958 8.2866 14.146 8.2866 2.1605 0 2.3731-1.4764 4.696-1.4764 0.84258 0 2.4272 0.52564 3.0611 1.1595 0.63386 0.63386 1.9866 1.7818 5.4342 11.135 0.37104 1.0049-0.15846 1.4262-0.6841 1.4262-0.52951 0-1.5847-0.4754-4.0119-3.007-1.345-1.4069-2.4775-0.773-8.445-4.4873-2.7944-1.7393-5.4883-4.2747-8.4953-5.384-3.0108-1.1054-8.016-1.5576-9.9215-2.0059-2.4813-0.57975-6.4391-2.4775-6.4391-5.3801 0-0.95079 0.52564-1.7972 1.2136-1.7972"/><path d="m329.44 13.618c1.3721 0 2.4736 2.1451 3.9578 3.5867 3.3703 3.2737 8.6576 1.1634 12.669 5.1714 1.0551 1.0551 1.8436 3.4862 1.8436 5.8593 0 2.377-0.52564 4.8042-1.7392 4.8042-2.8524 0-1.0049-4.5916-6.756-8.0237-5.7511-3.4283-6.7019-3.5867-9.0789-5.9637-2.3731-2.3731-2.4775-3.3239-2.4775-3.9578 0-0.63386 0.47153-1.4764 1.5808-1.4764"/><path d="m355.41 24.382c1.4262 0 1.0049 1.9518 2.5896 3.2737 1.5808 1.318 2.6089 0.86962 4.8003 3.0611 0.97785 0.97398 1.2136 1.6349 1.2136 1.8977 0 0.26668-0.5295 3.6949-4.0621 3.6949-0.79232 0-1.3837-0.17779-1.9518-1.318-0.84644-1.689-0.46767-4.0698-2.2726-6.1763-1.5808-1.8475-1.7934-2.0059-1.7934-3.0611s1.0049-1.3721 1.4764-1.3721"/></g><path d="m361.05 42.076c4.4911 1.2523 6.6555 3.0804 6.6555 5.7936 0 2.7673-1.0822 2.9297-2.0137 4.267-0.69957 1.0126-1.4185 2.435-1.3102 6.6555 0 0.84644-0.26668 1.318-0.90054 1.318-0.63 0-0.94693-0.31306-0.94693-0.94692 0-0.42515 0.26282-0.68797 0.26282-1.0551 0-0.37104 0.0928-2.3654-1.2677-3.5906-4.0544-3.6486-23.99-6.1222-36.679-6.1222-15.356 0-27.654 3.2737-31.082 3.2737-6.2806 0-9.1832-3.1152-9.1832-5.4381s1.3721-2.7442 1.3721-3.8495c0-1.1093-0.37104-1.2677-0.37104-2.2185s0.76527-2.8756 1.5305-2.8756c1.1363 0 1.0358 1.287 2.1374 3.1925 1.3837 2.3924 4.294 5.5154 9.8171 5.5154 4.8815 0 9.048-1.8591 16.279-3.5094 8.8586-2.0214 15.885-3.0108 22.854-3.0108 3.2234 0 15.182 0.14301 22.846 2.6011" fill="#f14729"/><g fill="#66634e"><path d="m362.54 67.024c0.94693 0 1.5305 0.26668 1.5305 0.89668 0 0.63386-1.0049 0.63386-1.5846 0.74208-0.57975 0.10436-4.3906 0.79619-6.068 3.4824-0.26282 0.42129-0.0541 0.84257 0.31693 1.001 0.36717 0.15846 4.696 2.3229 4.696 3.9075 0 1.5808-3.3239 3.1113-4.3288 3.1113-1.001 0-1.3721-1.2136-1.3721-1.4223 0-0.42515 0.95079-0.95079 0.95079-1.3721 0-0.42515-0.79233-1.0049-1.2677-1.0049-0.47153 0-0.68411 0.21258-0.94693 1.3218-0.26669 1.1054-1.2677 5.5386-1.4803 8.2827-0.20871 2.7442-1.0551 9.7128-1.0551 10.609 0 0.89668-0.15847 3.378-2.1103 4.7501-1.9518 1.3721-3.695 2.3229-3.695 2.3229s-0.73821 0.47539-1.001 0.47539c-0.26669 0-0.89668-0.63386-1.689-1.2677-0.79232-0.63386-1.6388-0.68797-2.1644-0.68797-1.0049 0-3.007 1.5846-4.4873 1.5846-1.4764 0-4.4834-1.6349-4.4834-2.5857 0-0.26282 0.57975-0.52951 0.73821-0.52951 0.63386 0 1.7934 0.79233 3.2196 0.79233 1.4223 0 2.69-1.2677 4.5375-1.2677 1.0552 0 3.4824 0.5295 5.4342 0.5295 1.9557 0 2.6939-0.47539 3.0108-1.0551 0.31693-0.57975 0.95079-1.318 0.95079-3.5365 0-2.2146-1.4262-9.6586-1.4262-14.196 0-4.5375 0.84257-8.4991 3.1113-10.768 2.2726-2.2688 7.1271-4.1162 10.664-4.1162"/><path d="m365.33 80.061c0.5295 0 1.1093 0.68797 1.1093 2.5316 0 1.8475-1.318 14.304-4.6419 22.908-3.3278 8.5996-4.2747 8.6537-7.1773 13.616-2.9026 4.9588-5.1984 10.211-8.3407 13.35-1.2136 1.2136-3.007 2.6939-7.3358 2.6939-4.3288 0-10.501-0.9508-17.47-3.7491-6.9647-2.7983-13.879-6.9145-18.05-11.081-0.62999-0.63386-0.26282-1.2136 0.79233-0.63386 1.0551 0.57975 6.7019 4.9588 17.524 8.2324 7.8653 2.377 10.026 2.4272 13.35 2.4272 3.1693 0 6.5705 0.55269 10.555-3.4321 3.9848-3.981 7.3358-10.71 8.762-13.296 1.4262-2.5896 4.2747-7.1271 6.9647-15.518 2.6939-8.3909 3.1886-13.037 3.4321-16.677 0.0541-0.79233 0.10435-1.3721 0.52564-1.3721"/><path d="m338.34 107.32c1.5421 0 2.8098 2.176 4.4718 2.176 1.662 0 2.1799-1.8591 3.1693-1.8591s1.2638 2.1373 1.6194 2.8872c0.35945 0.75367 0.59521 1.1479 0.59521 1.345 0 0.20098-0.39423 0.51791-0.79232 0.51791-0.39423 0-1.1866-0.71503-2.9683-0.71503-1.3064 0-2.3731 0.86963-2.4543 1.0706-0.0773 0.19711-0.33239 0.12754-0.59135-0.0425-0.55656-0.35558-1.7045-2.2146-3.6022-2.2146-1.0281 0-2.3383 0.67251-3.7684 1.5267-1.3991 0.86963-2.4929 1.2059-3.7143 1.2059-1.1093 0-2.5741-0.43674-2.5741-1.1904 0-0.42128 0.60681-0.71116 1.0706-0.71116 1.0861 0 2.1953 0.26669 4.6303-1.1479 1.7045-0.98944 3.5249-2.8485 4.9086-2.8485"/><path d="m333.51 114.72c0.83097 0 2.176 1.662 6.3309 1.662 4.0389 0 5.1057-1.8591 5.9792-1.8591 0.47153 0 0.59135 0.5527 0.59135 0.74981 0 0.19712-1.5421 5.3453-5.7782 5.3453-2.4543 0-5.1057-2.0987-6.0565-3.0495s-1.6233-1.8977-1.6233-2.2958c0-0.39423 0.31693-0.55269 0.55656-0.55269"/><path d="m326.27 70.943c2.8872 0 9.2606 0.63386 9.2606 2.2958 0 0.95079-2.8485 0.08116-5.067 0.08116-2.2146 0-2.4156 0.11595-2.4156 0.27442s0.0425 0.27828 0.23963 0.43674c0.19712 0.15846 1.6233 1.7431 1.6233 2.176 0 1.689-4.3945 3.4437-5.4226 3.4437-0.59522 0-1.7663-0.63386-1.7663-1.3837 0-0.55656 2.319-1.1093 2.319-1.662 0-0.55656-1.345-1.7045-2.5741-1.7045-1.2252 0-4.9472 2.6514-5.4612 2.6514-0.51405 0-0.63386-0.35558-0.63386-0.74981 0-0.3981 0.35558-1.1093 0.35558-1.4648 0-1.1866-0.83098-1.0706-0.83098-2.0175 0-0.51791 0.67251-1.3875 4.3559-1.9016 3.6795-0.51405 4.5916-0.4754 6.0178-0.4754"/><path d="m324.56 62.869c2.9683 0 9.2219 0.4754 10.211 0.67251s1.1904 0.63386 1.1904 0.91214c0 0.4754-0.30533 0.5527-1.4648 0.5527-2.1374 0-7.5445 0.01932-13.025 1.7006-8.6267 2.6553-9.8403 5.1868-11.278 5.1868-0.43675 0-1.1093-0.5527-1.1093-1.1093 0-0.5527 0.86963-1.8591 0.86963-2.8099 0-0.71116-0.71116-1.4648-0.71116-1.9016 0-1.5421 7.2817-3.2041 15.317-3.2041"/><path d="m400.64 60.218c4.4061 0 6.1724 4.3017 6.1724 9.419 0 0.81938-0.36718 2.1373-1.1093 2.1373-1.0281 0 0.31693-2.8485-2.2958-2.8485-0.62999 0-1.8591 0.67251-2.9258 1.7431-1.0706 1.0667-7.5213 9.7359-12.194 24.145-2.3383 7.216-3.4012 11.715-3.4012 15.591 0 2.5354 0.78846 4.4911 0.78846 5.384 0 1.5846-1.7006 0.56429-1.9789 0.0812-0.63386-1.1092-1.8204-4.2747-1.8204-8.5494 0-4.2747 1.8204-15.043 5.1482-25.965 1.8127-5.9637 6.9454-21.138 13.616-21.138"/><path d="m387.87 129.83c0.52951 0 1.001 0.26669 1.001 0.58362 0 0.57975-2.1683 2.3654-3.1113 3.378-1.4764 1.5808-1.9016 4.1665-3.1654 4.1665-0.42515 0-0.68797-0.47539-0.68797-0.84257 0-0.37104 0.15847-0.68797 0.15847-0.95079 0-1.2677-1.6349-0.95079-1.6349-1.9518 0-0.79232 2.3731-2.3229 3.378-2.9567 1.001-0.63386 3.1654-1.4262 4.0621-1.4262"/><path d="m386.07 140.12c0.68411 0 1.2136 0.21258 1.2136 0.52951 0 0.63386-2.5586 2.1374-3.0611 2.6359-0.50245 0.50245-3.1654 4.0119-3.5906 6.0178-0.42128 2.0059-1.0551 2.6398-1.6349 2.6398-1.2136 0-0.4754-2.0059-1.3721-2.6398-0.67251-0.47153-2.3731-0.26282-2.3731-1.7431 0-0.94693 1.5808-2.4775 3.0611-3.7993 1.4764-1.318 4.5375-3.6408 7.7571-3.6408"/><path d="m375.68 121.07c0.63386 0 1.1595 0.31693 1.4764 0.89668 0.31693 0.57976 0.18552 0.92374 0.73822 1.4764 0.55656 0.55656 2.5354 0.84643 2.5354 1.7934 0 0.95079-1.0551 0.95079-1.5846 1.3218-0.52564 0.36717-1.9518 1.001-3.0611 2.9026-1.1093 1.8977-1.7392 4.379-1.9518 7.8112-0.21257 3.4283-1.3296 6.7869-3.0611 9.6586-1.8475 3.0611-4.6457 5.4883-6.1763 8.0199-1.2948 2.1451-0.84257 4.5375-2.1644 4.5375-1.318 0-1.5305-3.6408-1.5305-4.9047 0-1.2677 0.34399-5.6004 3.6949-8.762 3.695-3.4824 6.7019-3.6408 6.7019-9.2876 0-3.5365-0.42129-4.6457-0.42129-6.8101 0-2.1644 0.73822-8.6538 4.8042-8.6538"/></g><path d="m228.93 43.355c2.2146 0-0.23963 0.86962 3.2466 4.3559 1.6194 1.6233 2.5973 2.2958 6.4082 2.2958 2.2997 0 5.6236-0.4754 13.933-4.1974 3.3046-1.4764 8.5494-3.0881 12.353-3.0881 4.9086 0 8.7078 2.377 11.398 4.3559 2.69 1.9789 5.9366 4.7501 7.3628 5.8555 1.4262 1.1093 3.5635 2.377 4.352 2.6939 0.79233 0.31693 0.95079 0.79232 0.71503 1.4262-0.23963 0.63-1.1904 2.0562-1.4262 2.3731-0.23577 0.31693-1.1866 0.79233-1.7431 1.0281-0.55269 0.23963-2.69 1.1093-5.3028 3.0881-2.6127 1.9789-6.9647 4.3559-12.271 4.3559-5.3028 0-13.458-2.1373-17.968-2.1373-1.9016 0-4.6728 1.0281-6.6517 3.007-0.74981 0.74981-1.3837 2.176-1.8977 2.69-0.51405 0.51404-2.2185 1.5847-2.8524 1.5847-0.62999 0-1.7392-0.39423-1.7392-1.0281 0-1.1904 2.6127-1.6658 2.6127-3.722 0-2.06-0.63386-2.1373-0.63386-3.0881 0-0.95079 0.75368-2.6514 1.9789-3.8766 2.5857-2.5896 9.249-4.1201 15.278-4.1201 4.3559 0 12.824 1.9016 18.602 1.9016 2.4543 0 4.3597-0.37877 5.4651-0.86963 1.5537-0.69184 1.1982-1.5305 0.49858-1.5305-0.62999 0-0.57975 0.28988-2.2417 0.28988-1.4764 0-5.0129-0.84644-8.0199-2.8485-3.0108-2.0059-7.8112-4.7501-12.457-4.7501-4.6457 0-7.958 1.662-9.3958 2.2146-3.4283 1.318-11.398 5.9096-15.673 5.9096-4.2747 0-9.2374-2.1103-9.2374-5.7511s3.5906-3.378 3.5906-5.5424c0-0.36718-0.15846-0.63386-0.15846-1.0551s0.42129-1.8204 1.8745-1.8204" fill="#f14729"/><g fill="#66634e"><path d="m281.42 74.414c0.9508 0 0.84644 1.001 1.4262 1.689 0.57975 0.6841 0.84644-0.15846 1.689 0.73822 0.84257 0.89668 0.42128 1.3721 1.001 1.9016 0.58362 0.52564 1.4919 0.47153 1.5305 0.94693 0.15847 1.9557-0.73821 5.067-0.73821 9.8171 0 3.3278 0.57975 7.1773 1.7431 10.555 0.47539 1.3875-0.54497 1.6465-1.0552 0.68797-3.4321-6.4391-6.5434-15.885-6.5434-23.275 0-1.7431 0.26282-3.0611 0.94692-3.0611"/><path d="m276.98 81.472c0.43674 0 0.63386 0.27828 0.63386 0.79233 0 0.51404-1.5035 5.5038-3.7606 8.4296-2.2533 2.9297-5.8168 6.7715-7.1232 6.7715-0.59521 0-0.59521-0.67251-0.71116-0.91214-0.11982-0.23577-0.55656-0.79233 0.31693-1.5035 0.86962-0.71116 0.98944-1.1093 0.98944-1.5847s-0.35945-1.1054-0.35945-1.5035c0-0.39423 0.31693-1.345 0.87349-1.662 0.5527-0.31693 3.9964-2.0562 5.9366-4.3945 1.9402-2.3345 2.5316-4.4332 3.2041-4.4332"/><path d="m280.44 107.9c0.0155-0.61454 0.0271-1.2059 0.0271-1.7702 0-8.074-1.7431-13.218-2.8524-13.218-1.6156 0-3.4205 7.9233-4.1356 12.086-2.5896-0.78846-4.3984-0.92374-5.84-0.92374-4.0351 0-4.8274 0.86963-4.8274 1.9016 0 1.0281 0.91215 2.5702 1.9016 3.5597 2.4581 2.462 5.2641 2.3963 7.958 2.5007-0.44834 5.009-0.91214 11.44-0.91214 13.728 0 0.72276 0.0232 1.8938 0.0657 3.3162-2.7519 1.4416-7.3396 3.9539-8.8547 5.4728-2.2146 2.2146-2.4543 3.4824-2.4543 4.9858 0 5.4612 4.8313 5.2255 4.8313 8.9436 0 1.4262-0.95079 2.9297 0.23576 2.9297 1.4262 0 2.6127-2.7712 2.6127-4.4332 0-1.662-1.4262-4.4332-1.4262-6.1724 0-1.7431 0.59521-3.6834 3.0881-6.1763 0.57588-0.57589 1.287-1.1015 2.0948-1.6001 0.17392 4.8931 0.42128 10.455 0.51791 11.811 0.15846 2.2185 0.23576 7.3628 1.345 7.3628 1.1092 0 3.0881-9.9756 4.0389-16.94 0.21257-1.5576 0.45993-3.4746 0.71502-5.6004 1.0436-0.51791 2.0832-1.0706 3.0843-1.6813 4.6844-2.864 7.8382-6.2033 7.8382-10.057 0-4.6419-4.3095-7.6488-9.0518-10.026zm-1.4378 18.077c0.42902-3.8264 0.84257-8.0006 1.1208-11.862 2.2997 1.0706 4.0621 2.4582 4.0621 5.3144 0 3.4205-3.7838 5.7859-5.183 6.5473"/></g><g fill="#f14729"><path d="m160.6 163.87c3.5945 0 6.8681 0.1662 9.4963 1.1479 7.6604 2.8601 12.77 8.8547 12.77 18.285 0 8.2595-5.1095 15.116-12.256 17.976l20.245 30.742h-14.424l-17.559-27.778h-12.051v27.778h-12.461v-68.148zm-13.779 32.512h8.3716l2.6514 8e-3c7.672 0 11.947-4.2554 11.947-12.928 0-4.9124-1.403-12.623-11.131-12.623h-11.838v25.544"/><path d="m107.02 163.88c3.7568 0 6.5744-0.13528 8.8431 0.22803 10.756 1.7122 16.681 9.4615 16.681 21.037 0 7.5174-3.695 13.102-9.0209 16.956-4.0157 2.9065-9.6007 3.8882-16.341 3.8882h-10.47v26.039h-12.306v-68.148zm0.99717 34.65c10.428-0.32079 12.032-8.3252 12.032-14.096 0-12.001-6.8642-13.481-12.867-13.481h-10.47v27.577h11.305"/><path d="m231.63 232.03c3.78-1.8823 7.8498-4.9433 9.8403-7.5445h15.209c5.8825 0 10.436-1.8745 13.953-4.4061 6.7406-4.8428 10.636-13.013 10.636-23.998 0-9.5929-5.5965-18.865-10.613-21.551-5.4187-2.8949-6.1531-3.3973-14.25-3.3973h-12.229v35.778c0 7.6334-1.5344 13.025-6.126 17.621-5.5927 5.5927-14.154 8.8393-23.225 8.8393-19.163 0-30.526-8.9514-30.526-24.883v-44.625h11.607v43.099c0 3.2582 0.2976 5.9598 0.88122 7.9619 1.7895 6.1531 9.1098 10.061 18.038 10.061 11.359 0 17.284-6.2768 17.284-17.872v-43.249l28.686 0.0193c6.0139 0 11.263 0.81165 15.247 2.5857 11.031 4.9008 18.386 14.965 18.386 30.464 0 17.137-10.273 35.098-38.148 35.098h-24.651"/><path d="m538.18 163.83v68.152h37.591v-8.0933h-25.946v-60.058h-11.645"/><path d="m459.13 231.96h12.109v-68.148h-12.109z"/><path d="m398.75 171.5h24.04v60.464h12.125v-60.464h22.166v-7.6527h-67.413v50.249l-40.652-50.218h-10.265v60.143h-32.887v-23.314h28.396v-7.9155h-28.396v-21.474h29.826v-7.4401h-41.7v68.148h53.909v-49.901l41.05 49.901h9.8016v-60.526"/><path d="m509.85 163.8 28.763 68.148h-13.156l-7.3126-18.1h-28.713l-7.6179 18.1h-10.837l29.633-68.148zm-17.18 42.248h22.336l-11.301-27.14-11.035 27.14"/><path d="m272.03 263.81-5.1366-0.62999c-0.79233 6.47-3.3123 13.211-7.4942 20.04-3.9771 6.5009-8.3368 11.236-10.579 13.481l3.6602 3.6602c1.7818-1.7818 5.3878-5.6274 9.0402-10.919v40.845h5.1791v-49.545c2.5316-5.0554 4.58-10.795 5.3298-16.933"/><path d="m302.86 301.47h16.979v-5.1791h-21.976v-6.8797h15.707v-23.747h-37.166v23.747h15.707v6.8797h-21.976v5.1791h17.002c-4.2167 8.1552-9.562 15.217-19.34 19.31l4.9086 4.1433c8.6306-4.7656 14.695-11.769 19.406-20.593v25.617h5.7511v-25.656c4.7153 8.8393 10.787 15.858 19.429 20.631l4.9086-4.1433c-9.7785-4.093-15.124-11.154-19.34-19.31zm-20.701-30.054h25.656v13.025h-25.656z"/><path d="m397.37 312.96c-0.35944 3.0147-0.89668 9.5929-1.9402 9.5929s-2.7712-2.7635-5.3917-10.034c-0.18552-0.51791-0.36718-1.0513-0.54497-1.6001 2.6398-4.9472 6.9338-11.139 8.7426-22.139l-5.1752-2.6437c-1.0242 7.0884-3.1461 13.029-5.3646 17.025-1.7199-6.0565-2.4118-13.759-3.1152-21.748h16.032v-4.7346h-16.477c-0.36718-4.5568-0.59908-9.3069-0.71503-13.605h-5.1791c0.0734 2.7326 0.25896 7.7957 0.71116 13.605h-20.983v32.648c0 8.1049-2.1374 13.62-5.8555 17.45l5.1714 3.1693c3.0031-3.5751 6.3618-9.0596 6.3618-20.62 0 0 0.13527-6.1415 0-13.918h8.9088l-0.6957 12.117c-0.13914 1.2716-0.71503 2.2417-1.8204 2.2417-2.748 0-5.0013-1.175-5.0284-1.1788l0.90828 5.5424c0.13141 0.0309 2.3576 0.27055 5.7279 0.27055 4.7114 0 5.1636-3.5017 5.4497-6.3695l4e-3 -0.0309 1.2098-13.895 0.2435-3.5133h-14.907c-0.0696-3.6408 0.0464-6.327 0-9.1794h15.738c0.8503 9.763 1.3991 19.75 3.865 28.296-3.2195 4.9317-10.308 11.502-17.207 15.205l5.3917 3.3935c5.1366-3.1306 9.848-7.1966 13.694-12.117 1.7856 4.665 4.4022 7.8228 5.4303 9.7359 1.3914 2.5857 3.6911 4.0273 5.5926 4.0196 2.6398-0.0155 3.7568-2.0253 5.0361-5.9753 0.91987-2.8485 1.6581-6.2033 1.9364-8.5069l-5.755-2.5045"/><path d="m385.71 266.81c2.7596 1.3528 6.0874 4.0892 8.874 8.1204l4.6998-2.6707c-2.6668-3.6602-5.0516-5.5154-9.3958-8.2672l-4.1781 2.8176"/><path d="m336.96 266.73c4.0892 2.5896 8.1784 6.9532 9.9717 10.892l4.8892-2.9838c-3.5442-5.0438-6.7522-8.0353-11.093-10.783l-3.7684 2.8756"/><path d="m356.32 311.18c-1.4416 0.86189-4.9936 3.0804-7.185 4.6844v-31.45h-16.403v4.9974h11.023v30.205c-2.0987 1.604-2.9992 2.8292-3.1616 2.9567l3.092 3.9307c0.10049-0.0812 8.8624-7.6334 12.77-9.9794l-0.13528-5.3453"/><path d="m343.68 326.5"/></g><g fill="#66634e"><path d="m230.65 266.34h-59.123v63.56h5.6468v-5.3414h50.655v5.3414h5.6429v-63.56zm-53.476 5.6468h50.655v47.153h-50.655z"/><path d="m224.87 281.35v-5.1327h-44.629v5.1327h19.746v9.6432h-16.496v5.1289h16.496v13.064h-19.746v5.1327h44.629v-5.1327h-19.75v-13.064h16.5v-5.1289h-16.5v-9.6432h19.75"/><path d="m207.94 299.9c3.0302 1.1827 6.9145 3.6408 9.8364 8.4296l4.5027-2.9219c-3.0108-3.7491-5.6197-5.9598-10.575-8.3793l-3.7645 2.8717"/><path d="m117.95 271.65h-11.622v-8.7001h-5.2525v8.7001h-17.346v5.2564h17.346v7.0652h5.2525v-7.0652h11.622v-5.2564"/><path d="m154.16 271.65h-17.342v-8.7001h-5.2564v8.7001h-11.622v5.2564h11.622v7.0652h5.2564v-7.0652h17.342v-5.2564"/><path d="m132.08 315.03c-1.975-1.7006-3.4901-3.0688-4.7462-4.8467h25.652v-5.2564h-9.4036v-17.868h-20.964v-6.4816h-5.7782v6.4816h-22.773v17.868h-9.0518v5.2564h27.051c-1.2561 1.7779-2.7712 3.1461-4.7462 4.8467-5.9598 5.1404-14.246 8.874-24.875 10.861l4.6728 5.2564c8.874-2.2185 16.48-4.8351 23.314-10.729 4.209-3.6292 7.0343-6.6594 8.9011-10.235h0.73435c1.8668 3.5751 4.6921 6.6053 8.9011 10.235 6.8333 5.8941 14.119 7.4363 22.993 9.6548l4.6728-5.2564c-10.629-1.9828-18.595-4.6457-24.554-9.7862zm6.2458-10.103h-17.029c0.57975-2.3151 1.1943-6.2188 1.3025-12.612h15.727zm-39.006-12.612h17.462c0.2319 4.9627 0 8.0006-1.7547 12.612h-15.707v-12.612"/><path d="m443.26 263.86-5.1366-0.62999c-0.79232 6.47-3.3123 13.211-7.4904 20.04-3.981 6.4971-8.3407 11.236-10.582 13.477l3.6602 3.664c1.7856-1.7856 5.3878-5.6313 9.0441-10.919v40.841h5.1752v-49.542c2.5316-5.0593 4.58-10.795 5.3298-16.933"/><path d="m474.08 301.51h16.983v-5.1752h-21.976v-6.8836h15.704v-23.747h-37.162v23.747h15.704v6.8836h-21.976v5.1752h17.006c-4.2206 8.1552-9.5659 15.22-19.344 19.31l4.9086 4.1433c8.6306-4.7656 14.695-11.769 19.406-20.589v25.613h5.755v-25.652c4.7114 8.8393 10.783 15.858 19.426 20.628l4.9086-4.1433c-9.7785-4.0892-15.124-11.154-19.34-19.31zm-20.701-30.05h25.66v13.025h-25.66z"/><path d="m516.79 265.64h-2.9142v64.391h5.7318v-59.216h11.935l-9.4886 16.817s9.9524 9.678 9.9524 17.45c0 3.378-3.5442 5.4535-10.362 3.8148l2.0485 6.1376c5.9173 0 8.6074-0.56429 11.452-3.4089 1.461-1.461 3.2698-4.4873 3.2698-6.9531 0-4.2283-5.3414-12.789-8.9977-17.45 0 0 8.1706-14.312 8.8624-17.188 0.69183-2.8794 0-4.3945 0-4.3945h-21.489"/><path d="m582.45 289.15c-8.4721-3.606-18.386-12.677-22.278-19.978 0.54497-1.1788 1.0513-2.377 1.5112-3.5906l-5.0941-1.9402c-2.1219 5.5617-5.2062 10.71-8.9282 14.884-3.9964 4.4834-10.022 7.7996-14.973 9.6702l4.4989 4.638c1.8707-0.7073 2.605-1.2098 4.3636-2.234v3.5983h32.582v-3.3394c1.9325 1.2832 3.0495 1.8436 4.638 2.52zm-38.808 0.13914c2.8794-1.9441 5.5849-4.3249 8.0894-7.1348 2.0098-2.2533 3.8534-4.7617 5.4844-7.444 2.0832 2.9644 5.0052 6.2381 8.4566 9.4229 2.0562 1.8977 4.1742 3.6486 6.2227 5.1559h-28.253"/><path d="m539.48 300.59c3.1693 3.5481 6.9261 12.059 7.9078 18.676l5.7241-2.7248c-1.001-6.7715-5.8864-15.12-8.4528-17.999l-5.1791 2.0484"/><path d="m548.88 298.54c1.7586 1.9712 7.0188 8.3175 9.133 16.77l5.3182-2.7248c-1.6967-6.7831-4.982-11.556-9.2721-16.361l-5.1791 2.3151"/><path d="m567.59 321.76c3.8186-6.9531 7.958-15.924 9.133-23.178l-5.3144-1.9093c-1.4262 7.3706-5.7782 18.892-9.3417 25.088h-28.423v5.0438h46.627v-5.0438h-12.681"/></g></g></svg>
