<?xml version="1.0" encoding="UTF-8"?>
<svg id="Layer_2" data-name="Layer 2" xmlns="http://www.w3.org/2000/svg" viewBox="0 0 491.77 73.67">
  <defs>
    <style>
      .cls-1 {
        fill-rule: evenodd;
      }

      .cls-1, .cls-2 {
        fill: #ed1d24;
        stroke-width: 0px;
      }
    </style>
  </defs>
  <g id="Layer_1-2" data-name="Layer 1">
    <g id="Layer">
      <path id="Path_4135" data-name="Path 4135" class="cls-2" d="M132.22,45.68c-2.8,15.19-15.48,27.7-38.18,27.7s-31.11-10.89-27.8-27.77L74.58,1.44h20.7l-7.71,41.02c-1.94,9.78,1.15,13.6,9.49,13.6,9.36,0,13.66-5.41,15.54-14.9L120.21,1.44h20.41l-8.41,44.23Z"/>
      <path id="Path_4136" data-name="Path 4136" class="cls-2" d="M56.68,46.6c0,15.48-15.44,27.07-38.44,27.07-1.53.02-3.06,0-4.59-.06-1.53-.04-3.06-.14-4.59-.29-1.53-.13-3.05-.3-4.55-.51-1.53-.21-3.04-.46-4.52-.73l4.81-18.98c1.19.45,2.39.84,3.6,1.18,1.23.32,2.47.59,3.73.83,1.23.23,2.48.41,3.76.54,1.25.11,2.52.16,3.79.16,6.59,0,10.06-2.48,10.06-5.95,0-8.22-21.94-7.26-21.94-23.31C7.8,13.45,18.6.01,44.39.01,45.79-.01,47.19,0,48.59.04c1.38.02,2.77.08,4.17.19,1.38.08,2.77.2,4.17.35,1.38.15,2.76.32,4.14.51l-4.49,17.16c-1.02-.25-2.04-.49-3.06-.7-1.04-.21-2.08-.39-3.12-.54-1.04-.15-2.09-.25-3.15-.32-1.04-.08-2.09-.14-3.15-.16-6.18,0-9.94,2.17-9.94,6.11.03,7.42,22.51,7.42,22.51,23.95h0Z"/>
      <path id="Path_4137" data-name="Path 4137" class="cls-2" d="M208.45,72.01h-25.79l-11.15-30.67c-.38-.98-.73-1.96-1.05-2.96-.32-1-.62-2.01-.89-3.03-.28-1.02-.53-2.04-.76-3.06-.23-1.02-.44-2.05-.61-3.09h-.16c-.35,2.8-.64,5.48-1.43,9.62l-6.37,33.18h-19.2L154.13,1.44h25.95l10.99,29.58c1.43,4.08,2.93,8.34,4.14,12.99h.16c.45-3.73.73-8.18,1.66-13.92l5.22-28.66h19.43l-13.22,70.57Z"/>
      <path id="Path_4138" data-name="Path 4138" class="cls-2" d="M304.31,72.01h-24.07l-2.29-29.97c-.35-4.87-.35-10.83-.35-15.73h-.13c-1.46,3.63-3.6,9.87-5.89,15.03l-13.88,30.67h-22.99L227.56,1.44h21.5l2.96,32.64c.06,1.06.13,2.12.19,3.18.04,1.04.07,2.09.1,3.15.02,1.06.03,2.11.03,3.15s-.01,2.12-.03,3.18h.19c.34-1.06.7-2.12,1.08-3.18.36-1.06.73-2.11,1.11-3.15.4-1.04.82-2.08,1.24-3.12.42-1.02.86-2.04,1.31-3.06l14.74-32.8h21.11l2.87,31.94c.29,3.22.51,7.99.51,13.37h.32c1.5-4.39,3.44-10.22,5.1-13.95l14.3-31.4h20.54l-32.42,70.6Z"/>
      <path id="Path_4139" data-name="Path 4139" class="cls-2" d="M426.05,50.07l-4.14,21.94h-20.73l4.2-21.59-15.32-48.98h21.78l4.3,15.54c.99,3.73,2.23,8.06,3.09,12.96h.06c2.58-4.9,5.73-9.52,8.41-13.53l10-14.97h22.2l-33.85,48.63Z"/>
      <path id="Path_4140" data-name="Path 4140" class="cls-1" d="M379.36,1.44l11.4,70.57h-21.69l-1.5-10.73h-24.01l-5.76,10.73h-21.5L354.62,1.44h24.74ZM365.61,46.34l-1.78-13.66c-.11-.79-.2-1.57-.29-2.36-.11-.76-.19-1.54-.25-2.32-.06-.79-.12-1.57-.16-2.36-.04-.76-.07-1.54-.1-2.32h-.13c-1.59,3.57-3.09,6.62-4.62,9.49l-7.04,13.53h14.36Z"/>
      <path id="Path_4141" data-name="Path 4141" class="cls-1" d="M481.27,2.11c4.3.06,8.15,2.71,9.74,6.69,1.59,3.98.64,8.57-2.42,11.56-3.09,3.03-7.64,3.89-11.62,2.2-3.95-1.66-6.5-5.57-6.46-9.87,0-1.4.29-2.8.83-4.08.54-1.31,1.34-2.48,2.36-3.47.99-.99,2.17-1.75,3.47-2.26,1.31-.54,2.71-.8,4.11-.76ZM481.27,3.83c-1.15-.03-2.32.19-3.38.64-1.08.45-2.07,1.08-2.9,1.91-.8.83-1.46,1.82-1.88,2.9-.45,1.08-.67,2.26-.64,3.41-.03,2.36.86,4.62,2.52,6.31,1.62,1.66,3.89,2.61,6.21,2.61s4.62-.96,6.24-2.61c1.66-1.69,2.55-3.95,2.48-6.31.03-1.15-.16-2.29-.57-3.38-.45-1.08-1.05-2.04-1.88-2.87-.8-.83-1.78-1.5-2.83-1.94-1.05-.45-2.2-.67-3.38-.67ZM479.07,18.86h-1.94V6.63h4.65c2.93,0,4.46,1.02,4.46,3.44.03.41-.03.86-.19,1.27s-.38.8-.7,1.15c-.29.32-.67.57-1.05.73-.41.19-.86.25-1.31.25l3.44,5.38h-2.04l-3.22-5.35h-2.1v5.35ZM479.07,11.98h2.2c2.26,0,3.03-.7,3.03-2.04,0-1.08-.57-1.78-2.71-1.78h-2.52v3.82Z"/>
    </g>
  </g>
</svg>