<?xml version="1.0" encoding="UTF-8"?>
<svg id="Layer_2" data-name="Layer 2" xmlns="http://www.w3.org/2000/svg" viewBox="0 0 543.82 557.96">
  <defs>
    <style>
      .cls-1 {
        fill: #00a19b;
      }

      .cls-2 {
        fill: #3d3935;
      }
    </style>
  </defs>
  <g id="Layer_1-2" data-name="Layer 1">
    <g>
      <circle class="cls-1" cx="242.75" cy="277.29" r="77.66" transform="translate(-54.56 495.05) rotate(-85.02)"/>
      <path class="cls-1" d="m342.6,170.34L440.97,0h-151.8c-42.33,1.12-53.42,9.45-69.55,37.34,0,0-97.59,169.07-97.64,169.16-12.12,20.72-19.21,45.05-19.21,70.78,0,50.95,27.23,95.54,67.92,120.02h0c21.04,12.65,45.71,19.95,72.05,19.95,77.3,0,139.97-62.67,139.97-139.97,0-26.48-7.37-51.23-20.15-72.35l-19.97-34.6Zm-52.65-134.54h89l-57.01,98.75-19.43-33.66h0s-36.14-62.59-36.14-62.59c5.2-1.77,12.28-2.5,23.57-2.5Zm-47.21,345.8c-25.59,0-49.03-9.24-67.18-24.53h0c-22.7-19.13-37.13-47.77-37.13-79.78,0-19.28,5.21-37.36,14.33-52.85,0,0,89.61-155.2,89.95-155.83l34.99,60.49s0,0,0,0l.03.04,54.94,95.23s.02.06.04.08c9.12,15.49,14.35,33.55,14.35,52.83,0,57.61-46.7,104.31-104.31,104.31Z"/>
    </g>
    <g>
      <path class="cls-2" d="m249.87,511.63v-.17c0-15.46-11.33-24.52-28.92-24.52h-27.22c-2.61,0-4.92,2.1-4.92,4.55v65.05h19.27v-17.57c0-1.13,1.12-2.32,2.19-2.32h6.84l13.42,19.9h22.3l-16.04-23.34c8.08-3.99,13.09-11.25,13.09-21.56Zm-19.26.88c0,5.48-4.16,9.03-11.02,9.03h-11.51v-15.35c0-1.65,1.34-3.02,2.99-3.02h8.39c6.98,0,11.14,3.16,11.14,9.14v.2Z"/>
      <path class="cls-2" d="m292.34,485.56c-21.46,0-37.53,16.21-37.53,36.21v.15c0,20.04,15.88,36.05,37.35,36.05s37.61-16.25,37.61-36.2v-.23c0-19.95-15.97-35.99-37.43-35.99Zm17.71,36.36c0,10.04-7.01,18.6-17.71,18.6s-17.78-8.74-17.78-18.75v-.23c0-10.04,7.09-18.6,17.6-18.6s17.89,8.77,17.89,18.82v.15Z"/>
      <path class="cls-2" d="m384.41,491.4v32.35l-28.62-36.82h-13.05c-2.75,0-4.95,2.25-4.95,4.98v64.62h19.09v-38.15l29.73,38.15h16.86v-69.6h-14.15c-2.58,0-4.91,1.96-4.91,4.47Z"/>
      <path class="cls-2" d="m123.35,491.72v12.16h20.86v52.66h19.3v-50.46c0-1.19.99-2.2,2.41-2.2h18.47v-16.94h-56.1c-2.67,0-4.93,2.33-4.94,4.78Z"/>
      <path class="cls-2" d="m29.81,486.93H4.93c-2.61,0-4.93,2.09-4.93,4.55v65.05h19.26v-17.57c0-1.1,1.14-2.32,2.23-2.32h7.29c17.32,0,29.94-8.62,29.94-25.01v-.17c0-15.46-11.32-24.52-28.91-24.52Zm9.66,25.58c0,5.48-4.18,9.03-11.02,9.03h-9.18v-18.37h9.05c6.98,0,11.15,3.16,11.15,9.14v.2Z"/>
      <path class="cls-2" d="m62.9,491.75v64.78h55.95v-16.43h-36.87v-8.38c0-1.3,1.16-2.63,2.4-2.63h30.14v-15.2h-32.54v-7.91c0-1.24,1.05-2.63,2.25-2.63h34.62v-16.43h-51c-2.66,0-4.96,2.2-4.95,4.82Z"/>
      <path class="cls-2" d="m517.91,513.18c-9.68-2.18-12.04-3.56-12.04-6.7v-.24c0-2.5,2.26-4.47,6.93-4.47,4.28,0,8.85,1.15,13.39,3.3,0,0,1,.5,1.44.74,1.32.59,2.84,1.09,4.74.69,1.34-.29,2.31-1.5,3.52-2.96l6.03-8.54c-7.53-6.07-16.74-9.26-28.62-9.26-16.68,0-26.94,9.36-26.94,22.29v.19c0,14.31,11.47,18.47,26.25,21.89,9.44,2.16,11.7,3.75,11.7,6.65v.17c0,3.02-2.76,4.77-7.92,4.77-6.08,0-11.96-1.63-17.4-4.8-1.57-.79-3.49-1.84-5.99-1.29-1.02.24-1.81.92-2.65,1.92l-7.27,8.7c8.54,7.59,20.3,11.48,32.61,11.48,16.89,0,28.11-8.45,28.11-22.65v-.19c0-13.02-9.96-18.22-25.91-21.7Z"/>
      <path class="cls-2" d="m427.91,556.52l3.5-8.79c.55-1.39,1.72-2.85,3.2-3.11h24.87l4.88,11.9h20.66l-29.43-69.59h-15.79c-2.33.26-3.27,1.5-4.1,3.18l-28.09,66.41h20.3Zm18.28-46.72l7.77,19.79h-15.65l7.88-19.79Z"/>
    </g>
  </g>
</svg>