<svg width="143" height="40" viewBox="0 0 143 40" fill="none" xmlns="http://www.w3.org/2000/svg">
	<path
		d="M50.4001 5.47829C50.3783 4.02821 50.1089 2.81014 49.8395 1.91109C49.7813 1.72258 49.6357 1.57757 49.4537 1.51957C48.529 1.21505 47.1967 0.89603 45.5877 0.881529C43.8695 0.867029 42.457 1.20055 41.496 1.51957C41.3067 1.58482 41.1611 1.73708 41.1029 1.92559C40.8335 2.87539 40.5859 4.17322 40.5859 5.71756C40.5859 7.24015 40.8408 8.52347 41.1029 9.46602C41.1538 9.65454 41.2994 9.80679 41.4814 9.87205C42.3915 10.1911 43.7239 10.5318 45.362 10.5463C47.102 10.5608 48.5145 10.1983 49.4537 9.87205C49.6357 9.80679 49.774 9.66179 49.8322 9.48053C50.1235 8.51622 50.422 7.13864 50.3928 5.47829H50.4001Z"
		fill="#FF6B12" />
	<path
		d="M49.7594 38.0689H41.2266V13.2L41.627 13.2725C44.1825 13.7583 46.8107 13.7583 49.3662 13.2725L49.7667 13.2V38.0689H49.7594Z"
		fill="#003866" />
	<path
		d="M87.2529 1.51956C83.3796 1.51956 79.8704 3.07115 77.3004 5.5798C74.7303 3.07115 71.2211 1.51956 67.3478 1.51956C59.5067 1.51956 53.1289 7.87093 53.1289 15.6796V38.0109H61.6617V15.6796C61.6617 12.5619 64.2099 10.0171 67.3478 10.0171C70.4858 10.0171 73.034 12.5547 73.034 15.6796V38.0109H81.5668V15.6796C81.5668 12.5619 84.115 10.0171 87.2529 10.0171C90.3908 10.0171 92.939 12.5547 92.939 15.6796V38.0109H101.472V15.6796C101.472 7.87093 95.094 1.51956 87.2529 1.51956Z"
		fill="#003866" />
	<path
		d="M27.2988 15.5346H11.4417C9.79631 15.5346 8.47853 14.0918 8.69695 12.4097C8.87896 11.0176 10.1312 10.017 11.5436 10.017H38.0085L37.9284 9.58202C37.4479 7.02987 37.4479 4.41247 37.9429 1.86758L38.0158 1.51231H11.4417C5.09307 1.50506 -0.0542841 6.74711 0.12773 13.113C0.309744 19.2396 5.52262 24.0394 11.682 24.0394H27.2915C28.8204 24.0394 30.0654 25.2792 30.0654 26.8018C30.0654 28.3244 28.8204 29.5642 27.2915 29.5642H1.55472V38.0762H27.2988C33.5382 38.0762 38.6128 33.0226 38.6128 26.809C38.6128 20.5954 33.5382 15.5419 27.2988 15.5419V15.5346Z"
		fill="#003866" />
	<path
		d="M139.689 9.68353C138.706 7.89993 137.374 6.20333 135.932 4.91275C135.022 4.10071 134.017 3.36842 132.94 2.75213C130.093 1.12079 126.78 0.286987 123.104 0.286987C119.427 0.286987 116.151 1.12804 113.239 2.78113C111.892 3.54242 110.654 4.46323 109.569 5.51454C108.717 6.33384 107.465 7.72592 106.329 9.69803C105.929 10.3941 105.572 11.1191 105.266 11.8587L105.07 12.3299H114.935L115.037 12.1994C115.437 11.6774 115.86 11.2279 116.34 10.8146C116.791 10.4231 117.287 10.0751 117.803 9.77778C119.332 8.90048 121.123 8.45096 123.111 8.45096C125.099 8.45096 126.941 8.89323 128.448 9.77053C129.955 10.6478 131.149 11.8804 132.015 13.4392C132.408 14.1498 132.714 14.9328 132.918 15.7594H104.145L103.999 16.9629C103.89 17.8838 103.832 18.8263 103.832 19.7616C103.832 23.5246 104.698 26.9105 106.409 29.8324C108.12 32.7616 110.567 35.1035 113.675 36.7783C116.755 38.4459 120.359 39.2942 124.392 39.2942C127.523 39.2942 130.406 38.765 132.962 37.7136C135.553 36.6551 137.752 35.0817 139.507 33.0516L140.271 32.1671L134.935 25.9462L133.893 27.0918C132.736 28.3679 131.367 29.3322 129.838 29.9702C128.287 30.6155 126.526 30.9418 124.603 30.9418C122.281 30.9418 120.206 30.4777 118.437 29.5497C116.704 28.6506 115.335 27.3673 114.367 25.7432C114.025 25.1704 113.755 24.5759 113.537 23.9233H141.96L141.989 23.6188C142.113 22.408 142.164 21.1754 142.128 19.9574C142.062 17.6445 141.946 13.7728 139.703 9.69078L139.689 9.68353Z"
		fill="#003866" />
</svg>