<?xml version="1.0" encoding="utf-8"?>
<!-- Generator: Adobe Illustrator 16.0.0, SVG Export Plug-In . SVG Version: 6.00 Build 0)  -->
<!DOCTYPE svg PUBLIC "-//W3C//DTD SVG 1.1//EN" "http://www.w3.org/Graphics/SVG/1.1/DTD/svg11.dtd">
<svg version="1.1" id="Layer_1" xmlns="http://www.w3.org/2000/svg" xmlns:xlink="http://www.w3.org/1999/xlink" x="0px" y="0px"
	 width="800px" height="800px" viewBox="0 0 800 800" enable-background="new 0 0 800 800" xml:space="preserve">
<g>
	<path d="M79.717,552.546l-9.512,24.487h18.885L79.717,552.546z M95.18,592.795l-4.642-12.002H68.816l-4.583,12.002h-3.98
		l17.408-43.883h4.577l17.248,43.883H95.18z"/>
	<path d="M157.064,592.795v-19.792c0-4.157-2.548-7.904-6.744-8.398c-6.009-0.608-10.048,5.005-10.048,10.618v17.572h-3.598v-19.622
		c0-4.2-2.1-7.904-6.68-8.398c-6.415-0.664-9.896,4.905-9.896,10.448v17.572h-3.481v-25.108l-0.269-5.26h3.633l0.226,4.552
		l0.99-1.386c2.644-3.646,6.437-4.595,10.781-4.098c4.806,0.607,6.362,3.987,7.454,6.361c3.149-5.91,8.956-7.183,13.371-6.191
		c5.319,1.229,7.854,5.584,7.854,10.997v20.133H157.064z"/>
	<path d="M180.926,564.604c-5.401,0-9.773,4.679-9.773,10.278h19.075C190.055,569.186,186.245,564.604,180.926,564.604
		 M170.979,578.262c0,7.45,4.379,12.016,9.843,12.016c4.585,0,8.462-2.799,9.233-7.38h3.869c-1.056,6.349-6.128,10.76-13.056,10.76
		c-8.62,0-13.972-6.94-13.972-16.951c0-8.001,4.974-15.367,14.152-15.367c9.67,0,13.137,7.747,13.137,16.923H170.979z"/>
	<path d="M240.279,592.795v-19.792c0-4.157-2.544-7.904-6.736-8.398c-6.023-0.608-10.056,5.005-10.056,10.618v17.572h-3.598v-19.622
		c0-4.2-2.099-7.904-6.681-8.398c-6.408-0.664-9.911,4.905-9.911,10.448v17.572h-3.467v-25.108l-0.269-5.26h3.645l0.222,4.552
		l0.994-1.386c2.661-3.646,6.411-4.595,10.769-4.098c4.807,0.607,6.355,3.987,7.472,6.361c3.139-5.91,8.945-7.183,13.368-6.191
		c5.308,1.229,7.846,5.584,7.846,10.997v20.133H240.279z"/>
	<path d="M263.988,564.774c-6.238-0.227-9.995,5.754-9.893,12.753c0.063,6.572,2.662,12.75,10.21,12.88
		c6.815,0.057,8.42-6.858,8.738-12.81C273.492,570.782,269.962,564.985,263.988,564.774 M264.975,593.657
		c-4.089,0.072-8.049-1.37-10.879-5.414l-0.159,4.552h-3.817l0.488-6.815v-37.067h3.646v17.799l1.613-1.726
		c2.932-3.266,7.4-4.028,10.881-3.363c6.971,1.216,9.893,7.831,10.162,14.816C277.31,584.554,273.775,593.517,264.975,593.657"/>
	<path d="M296.926,564.604c-5.415,0-9.787,4.679-9.787,10.278h19.068C306.048,569.186,302.224,564.604,296.926,564.604
		 M286.973,578.262c0,7.45,4.372,12.016,9.829,12.016c4.592,0,8.454-2.799,9.247-7.38h3.87c-1.05,6.349-6.154,10.76-13.057,10.76
		c-8.627,0-13.986-6.94-13.986-16.951c0-8.001,4.987-15.367,14.146-15.367c9.684,0,13.159,7.747,13.159,16.923H286.973z"/>
	<path d="M327.3,564.858c-4.64,1.175-6.443,5.938-6.443,10.829v17.137h-3.435v-25.405l-0.234-4.992h3.668l0.152,4.271
		c1.057-2.319,2.281-3.859,4.481-4.808c2.316-0.933,6.133-0.664,6.133-0.664v3.633C330.237,564.604,328.863,564.548,327.3,564.858"
		/>
	<path d="M362.624,564.774c-6.196,0-10.409,6.462-10.409,12.583c0,6.574,3.715,13.05,10.25,13.05c6.45,0,10.264-6.632,10.264-13.093
		C372.729,571.109,368.77,564.774,362.624,564.774 M362.553,593.784c-9.367,0-14.187-7.915-14.187-16.427
		c0-8.172,5.63-15.905,14.304-15.905c8.684,0,13.982,7.634,13.982,15.805C376.652,585.979,371.58,593.784,362.553,593.784"/>
	<path d="M394.02,552.275c-1.163,0.665-1.671,2.15-1.671,3.649v6.402h6.927v3.38h-7.031v27.088h-3.593v-27.202h-6.03v-3.363h6.086
		v-6.531c0-2.912,0.897-5.84,3.64-6.843c1.608-0.551,3.648-0.891,5.98-0.283l1.155,0.283v2.955
		C398.329,552.008,395.607,551.344,394.02,552.275"/>
	<path d="M436.617,593.657c-11.771,0.34-19.178-6.884-19.178-17.178v-27.243h9.431v27.243c0,6.023,2.842,10.505,9.421,10.351
		c7.063-0.057,9.092-4.384,9.092-10.024v-27.569h9.535v27.569C454.918,586.42,448.763,593.446,436.617,593.657"/>
	<polygon points="460.814,592.795 460.814,549.236 489.754,549.236 489.754,556.533 470.271,556.533 470.271,566.641 
		488.722,566.641 488.722,573.95 470.271,573.95 470.271,585.485 490.488,585.485 490.488,592.795 	"/>
	<polygon points="536.577,592.795 536.577,556.192 524.482,592.795 516.686,592.795 505.411,555.981 505.411,592.795 
		496.512,592.795 496.512,549.236 511.937,549.236 520.779,580.793 530.59,549.236 545.584,549.236 545.584,592.795 	"/>
	<path d="M594.655,562.327c0.156-5.243-4.142-7.01-8.355-7.066c-10.058-0.157-12.319,8.269-12.419,16.089
		c-0.063,6.742,2.361,13.798,8.992,15.111c4.142,0.904,11.515-0.608,11.515-0.608v-8.876h-8.532v-7.564h17.849v22.04
		c0,0-11.196,2.813-20.776,2.107c-13.578-0.935-19.035-10.887-19.169-22.21c-0.057-12.669,7.013-22.934,21.99-23.102
		c13.093-0.17,18.917,5.641,18.577,14.079H594.655z"/>
	<path d="M622.063,571.998c-1.599,1.782-1.669,5.529-1.669,6.264v14.533h-8.893v-25.76l-0.375-4.381h8.553l0.043,5.329
		c0.672-1.837,2.164-3.322,3.387-4.214c1.986-1.442,5.089-1.442,5.874-1.442h0.988v8.018
		C629.972,570.345,624.041,569.793,622.063,571.998"/>
	<path d="M650.676,567.97c-5.293,0-6.361,4.92-6.565,9.458c-0.284,4.694,1.152,10.491,6.348,10.335
		c5.534-0.057,6.234-5.26,6.234-9.798C656.819,573.44,655.992,567.97,650.676,567.97 M650.345,593.827
		c-10.052,0.057-16.019-7.563-15.799-16.399c0.154-8.582,6.021-15.651,15.651-15.778c10.489,0,16.066,7.706,15.842,16.472
		C665.869,586.773,661.074,593.827,650.345,593.827"/>
	<path d="M691.626,592.795v-3.492l-0.712,0.607c-1.833,1.655-3.98,3.593-8.124,3.763c-6.354,0.211-10.899-5.416-10.899-11.438
		v-19.567h8.963v16.031c0,4.087,0.276,9.163,5.195,9.05c4.815-0.043,5.577-4.809,5.577-8.879v-16.202h9.021v26.678l0.325,3.449
		H691.626z"/>
	<path d="M724.228,568.138c-4.516,0-6.418,5.246-6.418,9.784c-0.041,4.581,1.612,9.997,6.264,10.108
		c5.414,0.057,6.566-5.527,6.519-10.108C730.592,573.384,729.36,568.138,724.228,568.138 M725.954,594.054
		c-2.942-0.227-5.14-0.892-6.977-3.266l-1.209-1.583v15.281h-9.112v-36.349l-0.334-5.47h9.39v4.029l0.551-0.721
		c2.432-2.871,5.246-4.03,9.057-3.874c7.627,0.465,12.553,8.072,12.553,15.862C739.872,586.25,734.946,594.705,725.954,594.054"/>
	<rect x="136.275" y="380.761" fill="#C22032" width="528.222" height="98.918"/>
	<path fill="#162B75" d="M232.054,254.094c0.933,0,1.74,0.778,1.74,1.725v78.698c0,0-1.269,32.581-47.009,31.888h-1.954h-0.269
		h-1.975c-45.719,0.693-46.969-31.888-46.969-31.888v-78.698c0-0.947,0.76-1.725,1.721-1.725h26.087
		c0.947,0,1.725,0.778,1.725,1.725v73.828c0,0,0.576,11.946,11.296,13.982c0,0,12.084,1.619,16.477,0
		c10.734-2.036,11.335-13.982,11.335-13.982v-73.828c0-0.947,0.753-1.725,1.701-1.725H232.054z"/>
	<path fill="#162B75" d="M415.721,363.795c0.948,0,1.946-0.728,2.2-1.647l16.753-57.654c0.268-0.905,0.564-0.89,0.665,0.063
		l5.754,57.542c0.097,0.933,0.945,1.696,1.894,1.696h24.584c0.941,0,1.627-0.763,1.536-1.696l-12.132-106.295
		c-0.098-0.94-0.968-1.71-1.887-1.71H428.12c-0.933,0-1.944,0.735-2.269,1.633l-22.285,66.207c-0.297,0.898-0.556,1.646-0.58,1.646
		c-0.007,0-0.266-0.748-0.569-1.646l-22.273-66.207c-0.289-0.898-1.325-1.633-2.286-1.633h-26.915c-0.961,0-1.81,0.77-1.922,1.71
		L336.9,362.099c-0.124,0.933,0.58,1.696,1.526,1.696h24.589c0.952,0,1.789-0.763,1.898-1.696l5.754-57.542
		c0.11-0.954,0.399-0.968,0.683-0.063l16.717,57.654c0.283,0.919,1.27,1.647,2.217,1.647H415.721z"/>
	<path fill="#162B75" d="M254.374,254.094c-0.965,0-1.738,0.77-1.738,1.725v106.259c0,0.947,0.773,1.718,1.738,1.718h70.134
		c0.947,0,1.708-0.771,1.708-1.718V342.85c0-0.96-0.761-1.732-1.708-1.732H282.19v-21.829h36.85c0.951,0,1.711-0.792,1.711-1.731
		v-17.212c0-0.947-0.76-1.718-1.711-1.718h-36.85v-21.842h42.318c0.947,0,1.708-0.77,1.708-1.732v-19.234
		c0-0.955-0.761-1.725-1.708-1.725H254.374z"/>
	<path fill="#FFFFFF" d="M390.846,417.741c-2.333-2.091-5.316-3.493-8.418-3.493c-2.347,0-5.45,1.473-5.45,4.397
		c0,3.069,3.435,4.258,5.63,5.033l3.248,1.031c6.8,2.164,12.046,5.854,12.046,14.365c0,5.23-1.16,10.604-5.044,14.166
		c-3.821,3.493-8.939,4.948-13.876,4.948c-6.161,0-12.19-2.22-17.163-5.994l5.443-11.026c3.163,3.01,6.919,5.443,11.271,5.443
		c2.983,0,6.154-1.612,6.154-5.303c0-3.847-4.987-5.159-7.708-5.994c-7.978-2.447-13.227-4.665-13.227-14.859
		c0-10.659,7.073-17.645,16.86-17.645c4.919,0,10.95,1.669,15.292,4.327L390.846,417.741z"/>
	<path fill="#FFFFFF" d="M446.329,404.213v29.561c0,6.771-0.261,13.46-5.123,18.549c-4.08,4.325-10.506,5.867-16.195,5.867
		c-5.711,0-12.139-1.542-16.223-5.867c-4.85-5.089-5.112-11.777-5.112-18.549v-29.561h12.703v27.68
		c0,6.843,0.46,14.293,8.632,14.293c8.157,0,8.602-7.45,8.602-14.293v-27.68H446.329z"/>
	<polygon fill="#FFFFFF" points="454.347,404.213 467.056,404.213 490.327,436.361 490.454,436.361 490.454,404.213 
		503.164,404.213 503.164,456.791 490.454,456.791 467.176,424.569 467.056,424.569 467.056,456.791 454.347,456.791 	"/>
	<path fill="#FFFFFF" d="M524.165,427.779h1.216c4.137,0,8.815-0.835,8.815-6.56c0-5.713-4.679-6.561-8.815-6.561h-1.216V427.779z
		 M552.088,456.804h-15.814l-11.995-20.245h-0.113v20.245h-12.724v-52.591h18.994c9.664,0,16.987,4.946,16.987,16.173
		c0,7.253-3.77,13.53-10.712,14.859L552.088,456.804z"/>
	<rect x="555.521" y="404.213" fill="#FFFFFF" width="12.696" height="52.578"/>
	<path fill="#FFFFFF" d="M603.337,417.741c-2.324-2.091-5.316-3.493-8.419-3.493c-2.347,0-5.442,1.473-5.442,4.397
		c0,3.069,3.436,4.258,5.646,5.033l3.232,1.031c6.813,2.164,12.052,5.854,12.052,14.365c0,5.23-1.166,10.604-5.049,14.166
		c-3.837,3.493-8.949,4.948-13.875,4.948c-6.157,0-12.188-2.22-17.171-5.994l5.45-11.026c3.159,3.01,6.929,5.443,11.276,5.443
		c2.976,0,6.142-1.612,6.142-5.303c0-3.847-4.989-5.159-7.704-5.994c-7.975-2.447-13.228-4.665-13.228-14.859
		c0-10.659,7.069-17.645,16.86-17.645c4.912,0,10.95,1.669,15.305,4.327L603.337,417.741z"/>
	<polygon fill="#FFFFFF" points="629.14,415.791 629.14,424.569 643.459,424.569 643.459,436.15 629.14,436.15 629.14,445.21 
		644.23,445.21 644.23,456.804 616.428,456.804 616.428,404.213 644.23,404.213 644.23,415.791 	"/>
	<g>
		<defs>
			<path id="SVGID_1_" d="M565.753,365.563c-0.007,0-0.03-0.007-0.044-0.007C565.729,365.563,565.746,365.563,565.753,365.563
				 M565.702,365.556c-0.163-0.021-0.326-0.057-0.494-0.085C565.369,365.499,565.539,365.534,565.702,365.556 M565.208,365.47
				c-0.016,0-0.022-0.006-0.036-0.006C565.179,365.464,565.192,365.47,565.208,365.47 M565.172,365.464
				c-0.163-0.022-0.311-0.05-0.474-0.07C564.854,365.414,565.016,365.442,565.172,365.464 M564.698,365.394
				c-0.021-0.008-0.041-0.008-0.063-0.015C564.657,365.385,564.678,365.385,564.698,365.394 M564.635,365.378
				c-0.134-0.02-0.277-0.042-0.418-0.07C564.354,365.336,564.501,365.358,564.635,365.378 M564.217,365.308
				c-0.014,0-0.034-0.007-0.05-0.007C564.183,365.301,564.203,365.308,564.217,365.308 M596.989,364.587
				c0.007,0,0.014,0,0.014-0.007C596.996,364.587,596.996,364.587,596.989,364.587 M597.096,364.559
				c0.021,0,0.034-0.007,0.048-0.007C597.13,364.552,597.116,364.559,597.096,364.559 M597.166,364.545
				c0.204-0.043,0.403-0.085,0.607-0.128C597.569,364.46,597.37,364.502,597.166,364.545 M597.773,364.417
				c0.043-0.014,0.084-0.021,0.127-0.035C597.857,364.396,597.816,364.403,597.773,364.417 M597.9,364.382
				c0.418-0.092,0.828-0.19,1.238-0.289C598.729,364.191,598.318,364.29,597.9,364.382 M599.139,364.093
				c0.027-0.007,0.041-0.015,0.07-0.015C599.18,364.078,599.166,364.086,599.139,364.093 M599.336,364.043
				c0.305-0.077,0.615-0.156,0.926-0.234C599.951,363.887,599.641,363.966,599.336,364.043 M600.509,363.746
				c0.007-0.007,0.014-0.014,0.036-0.014C600.522,363.732,600.516,363.739,600.509,363.746 M600.658,363.697
				c-0.022,0.007-0.05,0.007-0.063,0.014c0.177-0.042,0.352-0.085,0.521-0.134C600.969,363.619,600.813,363.654,600.658,363.697
				 M601.116,363.577c0.007,0,0.007-0.008,0.007-0.008S601.123,363.569,601.116,363.577 M601.123,363.569c0.017,0,0.023,0,0.03,0
				C601.146,363.569,601.13,363.569,601.123,363.569 M601.153,363.569L601.153,363.569 M601.217,363.548
				c-0.023,0.007-0.043,0.014-0.063,0.021c0.026-0.007,0.063-0.021,0.091-0.027C601.244,363.542,601.23,363.548,601.217,363.548
				 M601.244,363.542c0.199-0.05,0.39-0.1,0.58-0.163C601.634,363.442,601.443,363.492,601.244,363.542 M601.824,363.378
				 M601.824,363.378c0.197-0.057,0.395-0.114,0.571-0.162C602.212,363.265,602.021,363.322,601.824,363.378 M602.396,363.216
				c0.036-0.015,0.08-0.022,0.113-0.029C602.476,363.194,602.432,363.201,602.396,363.216 M602.509,363.188
				c0.397-0.127,0.785-0.24,1.188-0.354C603.294,362.947,602.906,363.061,602.509,363.188 M603.697,362.834
				c0.021-0.007,0.027-0.014,0.05-0.028C603.725,362.82,603.711,362.827,603.697,362.834 M603.747,362.806
				c0.185-0.057,0.368-0.113,0.559-0.169C604.115,362.692,603.932,362.749,603.747,362.806 M604.306,362.637
				c0.027-0.008,0.057-0.021,0.091-0.028C604.362,362.622,604.333,362.629,604.306,362.637 M663.331,286.702
				c-0.022,0.021-0.057,0.057-0.086,0.078c-0.451,7.663-1.964,15.325-4.565,22.768c0.063-0.057,0.127-0.112,0.204-0.177
				c-8.687,25.265-28.962,45.136-54.487,53.237c33.833-10.731,58.48-42.139,59.068-79.391
				C663.451,284.376,663.401,285.543,663.331,286.702 M663.465,283.218L663.465,283.218 M663.465,283.218c0-0.043,0-0.079,0-0.114
				C663.465,283.139,663.465,283.174,663.465,283.218 M663.472,282.878c0-0.036,0-0.085,0-0.12
				C663.472,282.793,663.472,282.842,663.472,282.878 M663.472,282.758c0-0.043,0-0.092,0-0.135
				C663.472,282.667,663.472,282.715,663.472,282.758 M651.447,238.322c0.381,0.636,0.764,1.28,1.132,1.93h-0.007
				c2.962,5.281,5.329,10.851,7.089,16.598l0.014-0.029c0.545,1.747,1.068,3.563,1.499,5.373c-0.02,0.014-0.033,0.021-0.057,0.035
				c1.52,6.433,2.298,13.057,2.277,19.701c0.034-0.035,0.063-0.063,0.084-0.099c0-0.17,0-0.333,0-0.502c0-0.042,0-0.099,0-0.141
				c-0.007-0.128-0.007-0.241-0.007-0.361c0-0.05,0-0.12,0-0.17c-0.007-0.12-0.007-0.254-0.007-0.374c0-0.035,0-0.079,0-0.121
				c0-0.17-0.007-0.339-0.007-0.496c0-0.027,0-0.055-0.007-0.077c0-0.149-0.007-0.291-0.007-0.439
				c-0.009-0.042-0.009-0.077-0.009-0.127c-0.007-0.134-0.007-0.269-0.014-0.403c0-0.035-0.007-0.063-0.007-0.106
				c-0.014-0.339-0.021-0.685-0.05-1.025c0-0.021,0-0.042,0-0.064c-0.014-0.155-0.021-0.304-0.027-0.459
				c0-0.021-0.007-0.042-0.007-0.07c-0.007-0.164-0.014-0.326-0.022-0.496c0,0,0-0.007,0-0.014
				c-1.017-15.94-6.426-30.679-15.051-43.021C649.383,234.986,650.444,236.641,651.447,238.322 M494.045,281.259v1.138
				c0.006,0.905,0.029,1.809,0.057,2.7c0.007,0.014,0.007,0.021,0.007,0.035c0.007,0.155,0.016,0.326,0.022,0.495
				c0,0.021,0,0.043,0,0.071c0.007,0.155,0.014,0.304,0.021,0.459c0,0.022,0,0.05,0,0.079c0.014,0.147,0.027,0.311,0.036,0.466
				c0,0.014,0,0.035,0.007,0.057c0.007,0.162,0.014,0.333,0.021,0.501c0,0.008,0,0.015,0,0.021c0.05,0.714,0.106,1.436,0.163,2.142
				c0,0.007,0.007,0.007,0.007,0.007c0.014,0.17,0.021,0.332,0.043,0.502c0,0.028,0.007,0.063,0.007,0.092
				c0.014,0.148,0.027,0.289,0.048,0.445c0,0.021,0,0.049,0.009,0.07c0.014,0.142,0.027,0.291,0.041,0.431
				c0,0.028,0.007,0.085,0.014,0.113c0.016,0.134,0.029,0.276,0.05,0.41c0,0.036,0,0.078,0.007,0.106
				c0.016,0.148,0.036,0.282,0.05,0.424c0.007,0.029,0.007,0.064,0.007,0.092c0.022,0.162,0.043,0.318,0.063,0.474
				c0,0.014,0,0.035,0.009,0.042c0.041,0.346,0.091,0.7,0.134,1.039c0,0.015,0.007,0.028,0.007,0.05
				c0.021,0.148,0.05,0.304,0.063,0.466c0.007,0.037,0.014,0.072,0.021,0.12c0.022,0.135,0.036,0.255,0.057,0.389
				c0.007,0.043,0.014,0.085,0.022,0.135c0.014,0.114,0.034,0.234,0.063,0.353c0.007,0.071,0.021,0.135,0.021,0.198
				c0.021,0.099,0.034,0.198,0.057,0.297c0.007,0.07,0.014,0.134,0.027,0.212c0.022,0.092,0.036,0.19,0.05,0.297
				c0.014,0.063,0.023,0.134,0.036,0.204c0.021,0.1,0.027,0.199,0.051,0.291c0.014,0.063,0.026,0.142,0.04,0.205
				c0.014,0.099,0.037,0.19,0.057,0.282c0.014,0.079,0.021,0.149,0.037,0.234c0.021,0.085,0.033,0.169,0.05,0.269
				c0.014,0.07,0.027,0.141,0.041,0.212c0.029,0.162,0.063,0.317,0.086,0.48c0.027,0.07,0.041,0.148,0.057,0.232
				c0.014,0.085,0.034,0.17,0.057,0.255c0.007,0.092,0.027,0.169,0.048,0.254c0.016,0.085,0.022,0.155,0.043,0.233
				c0.021,0.085,0.043,0.191,0.057,0.276c0.014,0.07,0.027,0.134,0.05,0.205c0.014,0.105,0.041,0.197,0.07,0.297
				c0.007,0.063,0.021,0.12,0.029,0.169c0.027,0.113,0.048,0.219,0.077,0.318c0.007,0.057,0.021,0.105,0.027,0.162
				c0.029,0.107,0.057,0.219,0.077,0.333c0.009,0.042,0.029,0.07,0.029,0.113c0.029,0.127,0.063,0.247,0.084,0.374
				c0.009,0.022,0.016,0.043,0.022,0.072c7.812,32.58,34.46,57.851,67.789,63.641c-20.598-3.584-38.646-14.611-51.263-30.191
				c0.114,0.035,0.221,0.063,0.338,0.099c-12.383-15.177-19.021-34.136-19.048-53.419v-0.297
				c0.021-15.043,4.051-30.255,12.496-44.025c12.422-20.267,32.023-33.45,53.526-38.299c0.184-0.035,0.381-0.085,0.564-0.12
				c3.202-0.7,6.447-1.202,9.707-1.541C527.771,201.649,494.335,237.517,494.045,281.259"/>
		</defs>
		<clipPath id="SVGID_2_">
			<use xlink:href="#SVGID_1_"  overflow="visible"/>
		</clipPath>
		<g clip-path="url(#SVGID_2_)">
			<defs>
				<rect id="SVGID_3_" x="494.045" y="197.374" width="169.44" height="168.189"/>
			</defs>
			<clipPath id="SVGID_4_">
				<use xlink:href="#SVGID_3_"  overflow="visible"/>
			</clipPath>
			<g transform="matrix(1 0 0 1 -4.722919e-005 5.753765e-006)" clip-path="url(#SVGID_4_)">
				
					<image overflow="visible" width="32" height="31" xlink:href="F7C850BC.jpg"  transform="matrix(5.2951 0 0 5.4256 494.0449 197.3735)">
				</image>
			</g>
		</g>
	</g>
	<path fill="#162B75" d="M540.311,225.224c-7.303,15.63-2.029,23.943,7.105,25.781c8.779,1.738,56.068-4.242,91.23-29.117
		c-15.32-15.304-36.505-24.776-59.881-24.776c-6.377,0-12.582,0.728-18.549,2.057C553.254,204.745,543.924,217.483,540.311,225.224"
		/>
	<path fill="#162B75" d="M659.682,256.822c0.538,1.753,1.062,3.57,1.492,5.373c-26.925,23.03-82.218,33.866-84.338,34.454
		c-2.24,0.608-4.255,0.396-4.665-1.421c-0.403-1.832,3.547-2.234,3.547-2.234c53.95-12.972,78.126-27.773,83.873-36.009
		L659.682,256.822z"/>
	<path fill="#162B75" d="M567.907,273.717c0,0,0.396,1.618,6.915,0c6.105-1.528,61.802-15.127,77.757-33.465
		c-0.742-1.321-1.526-2.622-2.348-3.88c-7.176,8.757-30.468,22.457-79.369,33.796C570.862,270.168,565.88,271.08,567.907,273.717"/>
	<path fill="#162B75" d="M593.27,338.199c-37.875,6.8-59.2,2.989-80.365-3.089c15.531,19.17,39.261,31.449,65.861,31.449
		c37.147,0,68.688-23.921,80.111-57.188C644.591,321.346,615.813,334.149,593.27,338.199"/>
	<path fill="#162B75" d="M579.678,315.713c0,0-5.273,0.614-4.871,2.644c0.403,2.021,4.079,1.279,5.683,1.018
		c9.904-1.704,62.482-13.261,82.849-32.672c0.091-1.611,0.141-3.237,0.141-4.863C655.611,290.866,629.066,305.498,579.678,315.713"
		/>
	<path fill="#FFFFFF" d="M578.863,197.09c-2.29,0-4.579,0.092-6.862,0.284c2.233-0.17,4.488-0.269,6.765-0.269
		c8.75,0,17.185,1.329,25.115,3.789C595.674,198.334,587.248,197.09,578.863,197.09 M634.213,217.767
		c1.528,1.322,3.005,2.7,4.434,4.121c-0.009,0-0.009,0-0.009,0c3.309,3.316,6.364,6.899,9.092,10.716
		C643.884,227.21,639.375,222.22,634.213,217.767"/>
	<g>
		<defs>
			<path id="SVGID_5_" d="M661.669,288.208c-0.588,7.811-2.284,15.565-5.083,22.995c0.729-0.544,1.422-1.103,2.094-1.655
				c2.602-7.443,4.114-15.105,4.565-22.768C662.736,287.268,662.22,287.749,661.669,288.208 M659.812,263.325
				c1.376,6.066,2.084,12.25,2.098,18.457v0.297c0,0.459-0.007,0.94-0.014,1.414c0.551-0.538,1.052-1.054,1.499-1.563
				c0.021-6.644-0.758-13.268-2.277-19.701C660.693,262.597,660.256,262.965,659.812,263.325 M651.427,241.49
				c3.005,5.393,5.373,11.056,7.076,16.867c0.424-0.467,0.784-0.934,1.095-1.364l0.063-0.142c-1.76-5.747-4.127-11.317-7.089-16.598
				C652.211,240.676,651.823,241.087,651.427,241.49 M651.447,238.322c-0.05-0.092-0.104-0.169-0.164-0.261
				C651.343,238.153,651.397,238.23,651.447,238.322 M637.254,222.856c2.291,2.276,4.445,4.665,6.432,7.154
				c1.98,2.453,3.79,4.998,5.437,7.612c0.411-0.431,0.778-0.841,1.109-1.25c0.36,0.558,0.714,1.124,1.052,1.689
				c-1.108-1.852-2.295-3.676-3.554-5.45c-2.728-3.825-5.783-7.408-9.092-10.724C638.18,222.213,637.712,222.539,637.254,222.856
				 M603.881,200.9c0.098,0.021,0.185,0.057,0.284,0.078c-1.946-0.607-3.931-1.152-5.934-1.619
				C600.142,199.805,602.028,200.321,603.881,200.9 M598.231,199.359c0-0.007-0.014-0.007-0.014-0.007L598.231,199.359
				 M598.218,199.352c-0.104-0.028-0.211-0.05-0.324-0.078C598.007,199.302,598.114,199.324,598.218,199.352 M597.894,199.274
				c-0.036-0.007-0.077-0.014-0.113-0.021C597.816,199.26,597.857,199.267,597.894,199.274 M597.78,199.253
				c-0.077-0.021-0.147-0.043-0.233-0.05C597.633,199.21,597.703,199.232,597.78,199.253 M506.69,237.467
				c-8.445,13.77-12.476,28.982-12.496,44.025v0.297c0.027,19.283,6.665,38.242,19.048,53.419c0.808,0.226,1.62,0.453,2.427,0.678
				c-12.752-14.915-19.785-33.944-19.912-53.461c-0.009-0.375-0.009-0.757,0-1.139c0.077-12.441,2.982-25.073,8.997-36.928
				c3.358-6.646,7.493-12.64,12.244-17.934c10.921-12.187,25.065-20.662,40.42-24.77c0.955-0.925,1.894-1.767,2.799-2.488
				C538.714,204.017,519.112,217.201,506.69,237.467 M597.547,199.204c-0.063-0.021-0.12-0.035-0.177-0.05
				C597.427,199.168,597.483,199.182,597.547,199.204 M597.37,199.154c-0.057-0.014-0.12-0.021-0.168-0.027
				C597.25,199.133,597.313,199.14,597.37,199.154 M597.202,199.126c-0.093-0.028-0.186-0.043-0.27-0.057
				C597.017,199.083,597.109,199.098,597.202,199.126 M596.933,199.07c-0.027-0.008-0.057-0.015-0.084-0.021
				C596.876,199.055,596.905,199.062,596.933,199.07 M596.849,199.048c-0.101-0.035-0.221-0.05-0.32-0.078
				C596.628,198.999,596.742,199.013,596.849,199.048 M596.528,198.97c-0.021,0-0.034-0.007-0.048-0.014
				C596.494,198.963,596.508,198.97,596.528,198.97 M596.48,198.957c-4.935-1.039-10.023-1.655-15.233-1.81
				C586.457,197.302,591.539,197.917,596.48,198.957 M581.247,197.146l-0.007-0.007L581.247,197.146 M580.83,197.133
				c0.014,0,0.021,0,0.027,0C580.851,197.133,580.844,197.133,580.83,197.133 M581.24,197.14c-0.127,0-0.263-0.007-0.383-0.007
				C580.978,197.133,581.113,197.14,581.24,197.14 M580.83,197.133c-0.127-0.008-0.247-0.008-0.374-0.008
				C580.583,197.125,580.703,197.125,580.83,197.133 M580.095,197.125c0.106,0,0.211,0,0.324,0
				C580.306,197.125,580.201,197.125,580.095,197.125 M580.456,197.125c-0.01,0-0.023,0-0.037,0
				C580.433,197.125,580.446,197.125,580.456,197.125 M579.585,197.118c0.063,0,0.12,0,0.184,0
				C579.705,197.118,579.648,197.118,579.585,197.118 M579.769,197.118c0.086,0,0.156,0,0.233,0
				C579.925,197.118,579.854,197.118,579.769,197.118 M580.095,197.125c-0.029,0-0.063-0.007-0.093-0.007
				C580.031,197.118,580.065,197.125,580.095,197.125 M572.001,197.374c-3.774,0.311-7.514,0.862-11.22,1.675
				c5.613-1.209,11.424-1.895,17.391-1.937C576.092,197.125,574.037,197.203,572.001,197.374 M578.172,197.111
				c0.007,0,0.014,0,0.021,0C578.186,197.111,578.179,197.111,578.172,197.111 M578.192,197.111c0.19,0,0.381,0,0.573,0
				C578.573,197.111,578.383,197.111,578.192,197.111 M578.766,197.111c0.241,0,0.481,0,0.715,0
				C579.247,197.111,579.007,197.111,578.766,197.111 M579.585,197.118c-0.034,0-0.07,0-0.104-0.007
				C579.515,197.118,579.551,197.118,579.585,197.118"/>
		</defs>
		<clipPath id="SVGID_6_">
			<use xlink:href="#SVGID_5_"  overflow="visible"/>
		</clipPath>
		<g clip-path="url(#SVGID_6_)">
			<defs>
				<rect id="SVGID_7_" x="494.188" y="197.104" width="169.447" height="138.811"/>
			</defs>
			<clipPath id="SVGID_8_">
				<use xlink:href="#SVGID_7_"  overflow="visible"/>
			</clipPath>
			<g transform="matrix(1 0 0 1 5.361610e-006 1.053930e-005)" clip-path="url(#SVGID_8_)">
				
					<image overflow="visible" width="32" height="26" xlink:href="F7C850BD.jpg"  transform="matrix(5.2951 0 0 5.3387 494.1875 197.1045)">
				</image>
			</g>
		</g>
	</g>
	<path fill="#162B75" d="M578.766,197.104c-6.171,0-12.188,0.693-17.984,1.944c-0.184,0.035-0.381,0.078-0.564,0.12
		c-0.898,0.728-1.838,1.555-2.799,2.495c6.835-1.83,13.911-2.792,21.051-2.827c0.141,0,0.268,0,0.404,0c0.141,0,0.274,0,0.414,0
		c7.227,0.035,14.506,1.025,21.676,3.012c9.924,2.728,19.438,7.337,28.021,13.862c2.932,2.212,5.696,4.608,8.271,7.153
		c0.465-0.317,0.926-0.643,1.393-0.968l0,0c-1.429-1.435-2.905-2.813-4.434-4.128c-3.449-2.977-7.181-5.718-11.197-8.171
		c-6.051-3.718-12.376-6.575-18.86-8.617C596.147,198.462,587.608,197.104,578.766,197.104"/>
	<path fill="#162B75" d="M659.661,256.851l-0.07,0.134c-0.304,0.438-0.664,0.905-1.081,1.379c0.487,1.646,0.918,3.301,1.302,4.969
		c0.444-0.367,0.882-0.735,1.313-1.102C660.7,260.42,660.206,258.632,659.661,256.851"/>
	<path fill="#162B75" d="M650.231,236.372c-0.331,0.402-0.698,0.827-1.103,1.25c0.799,1.272,1.569,2.566,2.298,3.874
		c0.396-0.416,0.784-0.827,1.146-1.236c-0.361-0.651-0.744-1.302-1.125-1.945C651.06,237.659,650.642,237.008,650.231,236.372"/>
	<path fill="#162B75" d="M658.673,309.548c-0.665,0.552-1.358,1.104-2.08,1.662c-3.689,9.784-9.287,19.022-16.83,27.159
		c-4.919,5.309-10.369,9.833-16.195,13.551c-12.998,8.328-27.871,12.696-42.851,13.042c-0.658,0.015-1.309,0.021-1.974,0.021
		c-4.892,0-9.812-0.438-14.703-1.329c-10.863-1.951-21.432-6.1-31.01-12.456c-6.602-4.34-12.412-9.521-17.361-15.311
		c-0.807-0.226-1.619-0.446-2.427-0.678c5.854,7.168,12.993,13.495,21.328,18.605c13.805,8.447,29.068,12.476,44.146,12.476
		c28.458,0,56.241-14.35,72.18-40.377C654.119,320.646,656.713,315.155,658.673,309.548"/>
	<path fill="#162B75" d="M663.395,281.931c-0.439,0.509-0.941,1.025-1.506,1.556c-0.029,1.583-0.1,3.152-0.213,4.722
		c0.537-0.474,1.061-0.94,1.569-1.421C663.345,285.168,663.388,283.557,663.395,281.931"/>
	<g>
		<defs>
			<path id="SVGID_9_" d="M661.909,282.079v-0.297V282.079z"/>
		</defs>
		<clipPath id="SVGID_10_">
			<use xlink:href="#SVGID_9_"  overflow="visible"/>
		</clipPath>
		<g clip-path="url(#SVGID_10_)">
			<defs>
				<path id="SVGID_11_" d="M522.412,342.836c-33.654-31.153-35.69-83.717-4.468-117.357c31.175-33.627,83.739-35.656,117.344-4.468
					c33.67,31.146,35.663,83.717,4.468,117.357C608.61,372.002,556.046,374.038,522.412,342.836"/>
			</defs>
			<clipPath id="SVGID_12_">
				<use xlink:href="#SVGID_11_"  overflow="visible"/>
			</clipPath>
			<g clip-path="url(#SVGID_12_)">
				<defs>
					<rect id="SVGID_13_" x="494.194" y="197.097" width="169.207" height="169.194"/>
				</defs>
				<clipPath id="SVGID_14_">
					<use xlink:href="#SVGID_13_"  overflow="visible"/>
				</clipPath>
				<g clip-path="url(#SVGID_14_)">
					<defs>
						<rect id="SVGID_15_" x="660.807" y="280.793" width="1.873" height="2.501"/>
					</defs>
					<clipPath id="SVGID_16_">
						<use xlink:href="#SVGID_15_"  overflow="visible"/>
					</clipPath>
					<g clip-path="url(#SVGID_16_)">
						<defs>
							<rect id="SVGID_17_" x="660.807" y="280.793" width="1.88" height="2.501"/>
						</defs>
						<clipPath id="SVGID_18_">
							<use xlink:href="#SVGID_17_"  overflow="visible"/>
						</clipPath>
						<g transform="matrix(1 0 0 1 -1.996936e-005 -2.078868e-005)" clip-path="url(#SVGID_18_)">
							
								<image overflow="visible" width="1" height="1" xlink:href="F7C850BB.jpg"  transform="matrix(1.8758 0 0 -2.501 660.8066 283.2944)">
							</image>
						</g>
					</g>
				</g>
			</g>
		</g>
	</g>
	<g>
		<defs>
			<path id="SVGID_19_" d="M616.357,207.842c4.44,2.248,8.603,4.855,12.462,7.74c-3.619-2.736-7.414-5.139-11.33-7.189
				c0,0-0.007,0-0.007-0.015c-0.137-0.07-0.284-0.141-0.418-0.212c-0.007-0.007-0.014-0.007-0.022-0.014
				c-0.134-0.078-0.261-0.142-0.395-0.205c-0.021-0.014-0.036-0.021-0.07-0.028c-0.113-0.063-0.227-0.12-0.354-0.184
				c-0.036-0.022-0.07-0.042-0.106-0.057c-0.1-0.048-0.204-0.099-0.298-0.148c-0.057-0.028-0.113-0.056-0.177-0.092
				c-0.084-0.035-0.175-0.084-0.268-0.127c-0.063-0.028-0.12-0.057-0.184-0.092c-0.077-0.042-0.156-0.07-0.233-0.113
				c-0.077-0.035-0.156-0.077-0.24-0.112c-0.057-0.028-0.113-0.057-0.184-0.085c-0.101-0.057-0.197-0.099-0.305-0.142
				c-0.036-0.021-0.077-0.042-0.113-0.063c-0.113-0.05-0.233-0.106-0.354-0.162c-0.021-0.015-0.057-0.028-0.077-0.043
				c-4.142-1.902-8.398-3.45-12.723-4.644C606.186,203.311,611.331,205.29,616.357,207.842"/>
		</defs>
		<clipPath id="SVGID_20_">
			<use xlink:href="#SVGID_19_"  overflow="visible"/>
		</clipPath>
		
			<radialGradient id="SVGID_21_" cx="-180.1382" cy="861.3008" r="7.2161" gradientTransform="matrix(11.4717 0 0 -11.4717 2645.3484 10162.2529)" gradientUnits="userSpaceOnUse">
			<stop  offset="0" style="stop-color:#162B75"/>
			<stop  offset="0.75" style="stop-color:#162B75"/>
			<stop  offset="0.9" style="stop-color:#162B75"/>
			<stop  offset="1" style="stop-color:#162B75"/>
		</radialGradient>
		<rect x="600.963" y="201.855" clip-path="url(#SVGID_20_)" fill="url(#SVGID_21_)" width="27.856" height="13.728"/>
	</g>
	<g>
		<defs>
			<path id="SVGID_22_" d="M659.788,263.347c1.513,6.574,2.228,13.339,2.101,20.16c0.007-0.007,0.007-0.007,0.007-0.007
				c0.043-2.212,0-4.425-0.141-6.617c0-0.07-0.007-0.134-0.016-0.19c-0.007-0.099-0.007-0.198-0.021-0.297
				c0-0.092-0.007-0.184-0.014-0.275c-0.007-0.077-0.007-0.155-0.014-0.234c-0.007-0.134-0.022-0.269-0.036-0.396
				c0-0.042,0-0.084-0.007-0.127c-0.15-1.922-0.367-3.832-0.651-5.732c0-0.008-0.007-0.021-0.007-0.028
				c-0.021-0.17-0.057-0.34-0.077-0.502c0-0.035-0.007-0.063-0.014-0.105c-0.022-0.142-0.043-0.276-0.072-0.432
				c-0.007-0.042-0.014-0.092-0.021-0.141c-0.021-0.106-0.036-0.22-0.05-0.332c-0.274-1.591-0.587-3.182-0.945-4.765
				C659.802,263.332,659.795,263.34,659.788,263.347 M651.406,241.511c2.982,5.365,5.35,11.02,7.076,16.88
				c0.014-0.015,0.021-0.021,0.021-0.035c-1.493-5.076-3.486-10.031-5.961-14.795c-0.021-0.037-0.033-0.072-0.057-0.107
				c-0.07-0.127-0.134-0.254-0.197-0.374c-0.027-0.057-0.05-0.1-0.077-0.155c-0.063-0.1-0.12-0.206-0.17-0.319
				c-0.043-0.063-0.07-0.127-0.113-0.198c-0.05-0.077-0.091-0.162-0.134-0.254c-0.05-0.085-0.093-0.162-0.134-0.254
				c-0.036-0.05-0.057-0.092-0.093-0.148c-0.043-0.078-0.098-0.17-0.141-0.262C651.42,241.496,651.413,241.504,651.406,241.511
				 M649.108,237.637c0.007-0.007,0.014-0.007,0.014-0.015c-0.014-0.028-0.029-0.049-0.05-0.084
				c-0.057-0.085-0.113-0.177-0.17-0.283c-0.041-0.057-0.084-0.105-0.113-0.162c-0.063-0.107-0.134-0.206-0.197-0.304
				c-0.043-0.063-0.077-0.12-0.12-0.177c-0.077-0.135-0.17-0.275-0.268-0.411c-0.05-0.077-0.093-0.148-0.137-0.219
				c-0.054-0.085-0.12-0.17-0.184-0.262c-0.057-0.084-0.111-0.162-0.17-0.254c-0.048-0.063-0.091-0.134-0.134-0.198
				c-0.063-0.092-0.12-0.176-0.177-0.261c-0.041-0.057-0.084-0.12-0.127-0.177c-0.063-0.099-0.127-0.184-0.197-0.291
				c-0.036-0.049-0.07-0.099-0.106-0.147c-0.063-0.106-0.134-0.205-0.211-0.305c-0.029-0.035-0.057-0.083-0.087-0.119
				c-0.077-0.107-0.153-0.22-0.23-0.326c-0.023-0.035-0.044-0.063-0.063-0.1c-0.588-0.812-1.188-1.611-1.811-2.41
				c0,0,0-0.007-0.009-0.015c-0.104-0.141-0.197-0.261-0.311-0.396c-0.007-0.007-0.014-0.007-0.014-0.021
				c-0.093-0.128-0.197-0.249-0.297-0.369C645.8,232.682,647.523,235.113,649.108,237.637 M643.94,230.334
				c-0.007-0.014-0.014-0.021-0.021-0.028C643.927,230.314,643.934,230.321,643.94,230.334 M643.92,230.306
				c0-0.007,0-0.007-0.007-0.014c-0.043-0.057-0.087-0.113-0.127-0.162C643.826,230.186,643.877,230.25,643.92,230.306"/>
		</defs>
		<clipPath id="SVGID_23_">
			<use xlink:href="#SVGID_22_"  overflow="visible"/>
		</clipPath>
		<g clip-path="url(#SVGID_23_)">
			<defs>
				<rect id="SVGID_24_" x="642.675" y="228.9" width="20.012" height="55.646"/>
			</defs>
			<clipPath id="SVGID_25_">
				<use xlink:href="#SVGID_24_"  overflow="visible"/>
			</clipPath>
			<g transform="matrix(1 0 0 1 1.857895e-005 1.286982e-006)" clip-path="url(#SVGID_25_)">
				
					<image overflow="visible" width="4" height="11" xlink:href="F7C850C4.jpg"  transform="matrix(5.002 0 0 -5.0589 642.6748 284.5464)">
				</image>
			</g>
		</g>
	</g>
	<g>
		<defs>
			<path id="SVGID_26_" d="M658.482,258.392c0.48,1.64,0.918,3.287,1.306,4.955c0.007-0.006,0.014-0.015,0.023-0.021
				c-0.313-1.351-0.651-2.693-1.041-4.043c-0.021-0.084-0.048-0.176-0.07-0.276c-0.007-0.013-0.014-0.048-0.021-0.07
				c-0.057-0.19-0.106-0.382-0.177-0.579C658.503,258.37,658.496,258.376,658.482,258.392"/>
		</defs>
		<clipPath id="SVGID_27_">
			<use xlink:href="#SVGID_26_"  overflow="visible"/>
		</clipPath>
		
			<radialGradient id="SVGID_28_" cx="-180.0898" cy="845.1416" r="7.1833" gradientTransform="matrix(11.4717 0 0 -22.9434 2645.3484 19672.209)" gradientUnits="userSpaceOnUse">
			<stop  offset="0" style="stop-color:#162B75"/>
			<stop  offset="0.75" style="stop-color:#162B75"/>
			<stop  offset="0.9" style="stop-color:#162B75"/>
			<stop  offset="1" style="stop-color:#162B75"/>
		</radialGradient>
		<rect x="658.482" y="258.356" clip-path="url(#SVGID_27_)" fill="url(#SVGID_28_)" width="1.329" height="4.99"/>
	</g>
	<g>
		<defs>
			<path id="SVGID_29_" d="M649.108,237.637c0.799,1.279,1.567,2.566,2.298,3.874c0.007-0.007,0.014-0.015,0.021-0.021
				c-0.311-0.558-0.628-1.103-0.955-1.668c-0.043-0.085-0.1-0.155-0.141-0.233c-0.029-0.049-0.063-0.099-0.093-0.148
				c-0.063-0.112-0.134-0.226-0.211-0.353c-0.014-0.021-0.022-0.043-0.043-0.071c-0.077-0.127-0.163-0.275-0.254-0.416
				c-0.014-0.015-0.014-0.021-0.021-0.037c-0.087-0.14-0.17-0.282-0.264-0.431c-0.014-0.021-0.026-0.042-0.05-0.063
				c-0.063-0.105-0.134-0.226-0.211-0.333c-0.014-0.035-0.043-0.07-0.063-0.113C649.122,237.63,649.115,237.63,649.108,237.637"/>
		</defs>
		<clipPath id="SVGID_30_">
			<use xlink:href="#SVGID_29_"  overflow="visible"/>
		</clipPath>
		
			<radialGradient id="SVGID_31_" cx="-180.1626" cy="845.126" r="7.2605" gradientTransform="matrix(11.4717 0 0 -22.9434 2645.3484 19672.209)" gradientUnits="userSpaceOnUse">
			<stop  offset="0" style="stop-color:#162B75"/>
			<stop  offset="0.75" style="stop-color:#162B75"/>
			<stop  offset="0.9" style="stop-color:#162B75"/>
			<stop  offset="1" style="stop-color:#162B75"/>
		</radialGradient>
		<rect x="649.108" y="237.623" clip-path="url(#SVGID_30_)" fill="url(#SVGID_31_)" width="2.318" height="3.889"/>
	</g>
	<g>
		<defs>
			<path id="SVGID_32_" d="M661.662,288.215c-0.595,7.754-2.291,15.516-5.16,23.059c0.034-0.014,0.057-0.049,0.084-0.07
				c2.799-7.43,4.495-15.184,5.083-22.995L661.662,288.215z"/>
		</defs>
		<clipPath id="SVGID_33_">
			<use xlink:href="#SVGID_32_"  overflow="visible"/>
		</clipPath>
		<g clip-path="url(#SVGID_33_)">
			<defs>
				<rect id="SVGID_34_" x="655.809" y="287.048" width="6.878" height="25.01"/>
			</defs>
			<clipPath id="SVGID_35_">
				<use xlink:href="#SVGID_34_"  overflow="visible"/>
			</clipPath>
			<g transform="matrix(1 0 0 1 2.369017e-005 -2.542511e-007)" clip-path="url(#SVGID_35_)">
				
					<image overflow="visible" width="2" height="5" xlink:href="F7C850C7.jpg"  transform="matrix(3.4389 0 0 -5.002 655.8086 312.0581)">
				</image>
			</g>
		</g>
	</g>
	<g>
		<defs>
			<path id="SVGID_36_" d="M656.502,311.273c-1.055,2.758-2.256,5.493-3.619,8.186c-3.563,7.012-7.981,13.311-13.07,18.824
				c-3.089,3.344-6.432,6.412-9.981,9.176c-2.021,1.59-4.114,3.089-6.257,4.46c5.819-3.718,11.27-8.242,16.182-13.551
				c0.127-0.127,0.247-0.254,0.36-0.389c0.021-0.014,0.043-0.035,0.063-0.057c0.1-0.112,0.197-0.226,0.304-0.339
				c0.007-0.006,0.021-0.02,0.036-0.028c0.098-0.127,0.205-0.24,0.318-0.367c0.014-0.007,0.02-0.028,0.033-0.049
				c0.107-0.113,0.221-0.227,0.32-0.354c0.007-0.006,0.021-0.015,0.027-0.028c0.1-0.113,0.22-0.247,0.317-0.36
				c0.022-0.021,0.036-0.042,0.05-0.057c0.106-0.127,0.199-0.234,0.304-0.346c0.007-0.021,0.022-0.043,0.036-0.05
				c0.107-0.12,0.204-0.233,0.305-0.36c0.014-0.021,0.026-0.035,0.05-0.049c0.097-0.113,0.197-0.24,0.297-0.361
				c0.014-0.008,0.027-0.021,0.034-0.036c0.1-0.127,0.199-0.247,0.311-0.36c0.007-0.021,0.016-0.035,0.022-0.049
				c0.104-0.12,0.204-0.248,0.311-0.375c0.007-0.007,0.014-0.021,0.021-0.027c0.106-0.128,0.213-0.255,0.311-0.375
				c0.007-0.014,0.014-0.022,0.03-0.035c0.097-0.127,0.197-0.248,0.297-0.382c0.007-0.007,0.021-0.021,0.027-0.035
				c0.1-0.12,0.204-0.254,0.297-0.374c0.014-0.015,0.021-0.029,0.029-0.043c0.098-0.12,0.204-0.247,0.304-0.374
				c0-0.014,0.014-0.014,0.021-0.028c0.106-0.134,0.197-0.262,0.297-0.389c0.007-0.014,0.014-0.021,0.021-0.035
				c0.106-0.127,0.207-0.262,0.305-0.389c0-0.007,0-0.014,0.006-0.014c0.107-0.142,0.207-0.269,0.305-0.396
				c0.007-0.021,0.014-0.028,0.014-0.035c0.106-0.135,0.206-0.262,0.299-0.403c0.007-0.007,0.014-0.014,0.014-0.014
				c0.104-0.135,0.204-0.269,0.297-0.404c0-0.007,0.007-0.007,0.014-0.014c0.098-0.148,0.197-0.282,0.297-0.424
				c0-0.006,0-0.006,0-0.006c1.116-1.556,2.178-3.139,3.174-4.758c0.05-0.084,0.106-0.177,0.163-0.261
				c0.034-0.063,0.063-0.114,0.098-0.164c0.072-0.112,0.143-0.24,0.213-0.36c0.014-0.021,0.027-0.042,0.043-0.063
				c0.077-0.127,0.154-0.254,0.218-0.389c0.016-0.014,0.022-0.028,0.036-0.042c0.084-0.134,0.156-0.275,0.233-0.402
				c0.007-0.008,0.007-0.015,0.014-0.021c2.348-4.029,4.334-8.2,5.938-12.491C656.559,311.225,656.536,311.26,656.502,311.273"/>
		</defs>
		<clipPath id="SVGID_37_">
			<use xlink:href="#SVGID_36_"  overflow="visible"/>
		</clipPath>
		
			<radialGradient id="SVGID_38_" cx="-180.1367" cy="855.2383" r="7.2401" gradientTransform="matrix(11.4717 0 0 -14.119 2645.3484 12356.9688)" gradientUnits="userSpaceOnUse">
			<stop  offset="0" style="stop-color:#162B75"/>
			<stop  offset="0.75" style="stop-color:#162B75"/>
			<stop  offset="0.9" style="stop-color:#162B75"/>
			<stop  offset="1" style="stop-color:#162B75"/>
		</radialGradient>
		<rect x="623.567" y="311.203" clip-path="url(#SVGID_37_)" fill="url(#SVGID_38_)" width="33.019" height="40.716"/>
	</g>
	<g>
		<defs>
			<path id="SVGID_39_" d="M661.889,283.507c-0.036,1.569-0.113,3.139-0.227,4.708l0.007-0.007c0.029-0.389,0.057-0.778,0.086-1.173
				c0-0.007,0-0.021,0-0.035c0.007-0.127,0.007-0.262,0.021-0.389c0.05-1.046,0.1-2.079,0.12-3.11
				C661.896,283.5,661.896,283.5,661.889,283.507"/>
		</defs>
		<clipPath id="SVGID_40_">
			<use xlink:href="#SVGID_39_"  overflow="visible"/>
		</clipPath>
		
			<radialGradient id="SVGID_41_" cx="-181.3018" cy="837.0605" r="8.3977" gradientTransform="matrix(11.4717 0 0 -45.8868 2645.3484 38692.1055)" gradientUnits="userSpaceOnUse">
			<stop  offset="0" style="stop-color:#162B75"/>
			<stop  offset="0.75" style="stop-color:#162B75"/>
			<stop  offset="0.9" style="stop-color:#162B75"/>
			<stop  offset="1" style="stop-color:#162B75"/>
		</radialGradient>
		<rect x="661.662" y="283.5" clip-path="url(#SVGID_40_)" fill="url(#SVGID_41_)" width="0.233" height="4.715"/>
	</g>
	<g>
		<defs>
			<path id="SVGID_42_" d="M580.717,364.955c0.156-0.007,0.311-0.007,0.46-0.014C581.027,364.948,580.864,364.948,580.717,364.955
				 M581.177,364.941c0.161,0,0.311,0,0.458-0.007C581.487,364.941,581.338,364.941,581.177,364.941 M581.635,364.934
				c0.149-0.008,0.297-0.021,0.438-0.021C581.932,364.913,581.784,364.926,581.635,364.934 M582.072,364.913
				c0.144-0.007,0.291-0.015,0.434-0.021C582.363,364.898,582.216,364.906,582.072,364.913 M582.506,364.891
				c0.147-0.007,0.288-0.014,0.438-0.014C582.794,364.877,582.653,364.884,582.506,364.891 M582.943,364.877
				c0.147-0.008,0.297-0.015,0.444-0.028C583.24,364.863,583.084,364.87,582.943,364.877 M564.04,363.654
				c-0.127-0.021-0.261-0.042-0.388-0.07C563.779,363.612,563.913,363.632,564.04,363.654 M563.652,363.583
				c-0.127-0.015-0.24-0.042-0.36-0.071C563.405,363.542,563.525,363.569,563.652,363.583 M563.292,363.512
				c-0.127-0.021-0.254-0.042-0.381-0.07C563.038,363.47,563.158,363.492,563.292,363.512 M549.033,359.469c0,0,0,0,0.007,0
				c0.143,0.057,0.276,0.105,0.417,0.156c0.077,0.035,0.163,0.063,0.264,0.099c0.054,0.015,0.11,0.043,0.168,0.063
				c4.257,1.584,8.618,2.807,13.022,3.655c-7.354-1.435-14.626-3.896-21.632-7.465c-2.862-1.448-5.613-3.039-8.235-4.764
				C538.127,354.584,543.492,357.334,549.033,359.469 M583.388,364.849c8.512-0.467,16.938-2.227,24.988-5.281
				c0.017-0.006,0.03-0.006,0.037-0.013c0.417-0.157,0.827-0.319,1.229-0.481c0.014-0.007,0.029-0.007,0.043-0.015
				c0.185-0.07,0.368-0.149,0.545-0.226c0.05-0.015,0.077-0.022,0.12-0.043c0.154-0.063,0.331-0.134,0.487-0.197
				c0.036-0.021,0.077-0.035,0.113-0.05c0.388-0.162,0.771-0.324,1.166-0.495c0.043-0.015,0.077-0.035,0.127-0.057
				c0.141-0.07,0.304-0.142,0.467-0.205c0.037-0.014,0.077-0.035,0.128-0.057c0.17-0.085,0.331-0.155,0.517-0.232
				c0.014-0.008,0.027-0.021,0.048-0.028c0.396-0.184,0.791-0.361,1.195-0.552c0.014-0.014,0.036-0.021,0.063-0.035
				c0.19-0.085,0.367-0.176,0.558-0.269c0.009-0.007,0.016-0.007,0.022-0.007c2.842-1.392,5.627-2.947,8.333-4.687
				c0.347-0.219,0.693-0.453,1.048-0.678c0.063-0.05,0.134-0.092,0.197-0.135c0.036-0.021,0.07-0.042,0.106-0.077
				c0.113-0.078,0.247-0.163,0.36-0.24c0.007,0,0.014-0.007,0.014-0.015c1.046-0.706,2.063-1.441,3.075-2.197
				c0.021-0.015,0.034-0.022,0.043-0.035c0.118-0.079,0.225-0.164,0.345-0.262c0.063-0.042,0.127-0.092,0.184-0.142
				c0.063-0.042,0.12-0.085,0.177-0.134c0.107-0.078,0.214-0.164,0.32-0.241c0.007-0.006,0.014-0.006,0.014-0.015
				c0.134-0.099,0.254-0.197,0.374-0.289C616.471,357.843,600.198,363.901,583.388,364.849"/>
		</defs>
		<clipPath id="SVGID_43_">
			<use xlink:href="#SVGID_42_"  overflow="visible"/>
		</clipPath>
		<g clip-path="url(#SVGID_43_)">
			<defs>
				<rect id="SVGID_44_" x="532.006" y="346.441" width="98.794" height="19.383"/>
			</defs>
			<clipPath id="SVGID_45_">
				<use xlink:href="#SVGID_44_"  overflow="visible"/>
			</clipPath>
			<g transform="matrix(1 0 0 1 6.142363e-007 -1.556524e-005)" clip-path="url(#SVGID_45_)">
				
					<image overflow="visible" width="19" height="4" xlink:href="F7C850C5.jpg"  transform="matrix(5.1995 0 0 -4.8457 532.0059 365.8242)">
				</image>
			</g>
		</g>
	</g>
	<g>
		<defs>
			<path id="SVGID_46_" d="M578.873,198.836c-0.13,0-0.264,0-0.404,0h0.818C579.147,198.836,579.014,198.836,578.873,198.836"/>
		</defs>
		<clipPath id="SVGID_47_">
			<use xlink:href="#SVGID_46_"  overflow="visible"/>
		</clipPath>
		<g clip-path="url(#SVGID_47_)">
			<defs>
				<path id="SVGID_48_" d="M616.351,207.842c40.93,20.704,57.322,70.688,36.532,111.617
					c-20.733,40.894-70.717,57.286-111.604,36.517C500.356,335.279,484,285.274,504.747,244.36
					C525.458,203.466,575.45,187.073,616.351,207.842"/>
			</defs>
			<clipPath id="SVGID_49_">
				<use xlink:href="#SVGID_48_"  overflow="visible"/>
			</clipPath>
			<g clip-path="url(#SVGID_49_)">
				<defs>
					<rect id="SVGID_50_" x="494.194" y="197.097" width="169.207" height="169.194"/>
				</defs>
				<clipPath id="SVGID_51_">
					<use xlink:href="#SVGID_50_"  overflow="visible"/>
				</clipPath>
				<g clip-path="url(#SVGID_51_)">
					<defs>
						<rect id="SVGID_52_" x="577.287" y="198.412" width="2.608" height="1.308"/>
					</defs>
					<clipPath id="SVGID_53_">
						<use xlink:href="#SVGID_52_"  overflow="visible"/>
					</clipPath>
					
						<radialGradient id="SVGID_54_" cx="-180.1519" cy="861.6191" r="6.8788" gradientTransform="matrix(11.4718 0 0 -11.4718 2645.5034 10162.1836)" gradientUnits="userSpaceOnUse">
						<stop  offset="0" style="stop-color:#162B75"/>
						<stop  offset="0.75" style="stop-color:#162B75"/>
						<stop  offset="0.9" style="stop-color:#162B75"/>
						<stop  offset="1" style="stop-color:#162B75"/>
					</radialGradient>
					<rect x="577.287" y="198.412" clip-path="url(#SVGID_53_)" fill="url(#SVGID_54_)" width="2.608" height="1.308"/>
				</g>
			</g>
		</g>
	</g>
	<g>
		<defs>
			<path id="SVGID_55_" d="M495.757,281.464c-0.009,0.254-0.009,0.495,0,0.75c0,0.077,0,0.141,0,0.212v-1.139
				C495.757,281.351,495.757,281.415,495.757,281.464"/>
		</defs>
		<clipPath id="SVGID_56_">
			<use xlink:href="#SVGID_55_"  overflow="visible"/>
		</clipPath>
		<g clip-path="url(#SVGID_56_)">
			<defs>
				<rect id="SVGID_57_" x="495.119" y="280.17" width="1.874" height="3.124"/>
			</defs>
			<clipPath id="SVGID_58_">
				<use xlink:href="#SVGID_57_"  overflow="visible"/>
			</clipPath>
			<g transform="matrix(1 0 0 1 -1.382823e-005 1.674293e-005)" clip-path="url(#SVGID_58_)">
				
					<image overflow="visible" width="1" height="1" xlink:href="F7C850CB.jpg"  transform="matrix(1.8758 0 0 -3.1263 495.1191 283.2944)">
				</image>
			</g>
		</g>
	</g>
	<g>
		<defs>
			<path id="SVGID_59_" d="M503.892,246.113c-0.07,0.134-0.141,0.282-0.204,0.417c-0.016,0.035-0.036,0.063-0.043,0.099
				c-0.077,0.17-0.17,0.332-0.247,0.516l-0.007,0.015c-5.089,11.034-7.557,22.663-7.634,34.128v1.139
				c0.127,19.517,7.16,38.546,19.912,53.461c0.027,0,0.041,0.007,0.07,0.021c-21.675-25.243-25.836-60.735-11.784-89.923
				C503.926,246.021,503.912,246.063,503.892,246.113 M503.955,245.986c0-0.007,0-0.015,0.007-0.021
				C503.955,245.971,503.955,245.979,503.955,245.986 M503.962,245.964L503.962,245.964c0.007-0.021,0.014-0.042,0.022-0.057
				C503.976,245.922,503.969,245.943,503.962,245.964 M503.984,245.908c0.048-0.092,0.091-0.191,0.135-0.276
				C504.075,245.717,504.032,245.815,503.984,245.908 M504.119,245.632c0.013-0.021,0.026-0.035,0.033-0.057
				C504.139,245.597,504.132,245.618,504.119,245.632 M504.152,245.575L504.152,245.575c0-0.007,0-0.007,0.007-0.014
				C504.152,245.568,504.152,245.568,504.152,245.575 M516.454,227.027c-0.086,0.113-0.17,0.205-0.256,0.304
				c-0.091,0.099-0.168,0.19-0.241,0.283c-0.063,0.071-0.134,0.148-0.19,0.22c-0.12,0.134-0.24,0.269-0.347,0.403
				c-0.034,0.035-0.055,0.077-0.091,0.113c-4.051,4.807-7.62,10.158-10.575,16.011c-0.098,0.177-0.184,0.354-0.268,0.53
				c-0.022,0.049-0.043,0.092-0.07,0.134c-0.063,0.127-0.127,0.269-0.19,0.396c-0.03,0.043-0.05,0.099-0.066,0.142
				c1.967-4.037,4.277-7.946,6.949-11.692c1.689-2.417,3.513-4.729,5.43-6.92C516.518,226.977,516.488,226.999,516.454,227.027
				 M516.538,226.949c0.007-0.007,0.014-0.021,0.021-0.028C516.552,226.928,516.545,226.942,516.538,226.949 M516.559,226.92
				c0.016-0.014,0.029-0.027,0.043-0.049C516.588,226.885,516.574,226.907,516.559,226.92 M516.602,226.872
				c0.007-0.007,0.014-0.015,0.021-0.021c0.106-0.127,0.22-0.248,0.326-0.375c0.007-0.007,0.014-0.021,0.021-0.028
				C516.849,226.596,516.722,226.729,516.602,226.872"/>
		</defs>
		<clipPath id="SVGID_60_">
			<use xlink:href="#SVGID_59_"  overflow="visible"/>
		</clipPath>
		<g clip-path="url(#SVGID_60_)">
			<defs>
				<rect id="SVGID_61_" x="488.241" y="225.768" width="29.386" height="111.3"/>
			</defs>
			<clipPath id="SVGID_62_">
				<use xlink:href="#SVGID_61_"  overflow="visible"/>
			</clipPath>
			<g transform="matrix(1 0 0 1 -3.617896e-005 -1.219957e-005)" clip-path="url(#SVGID_62_)">
				
					<image overflow="visible" width="6" height="21" xlink:href="F7C850CC.jpg"  transform="matrix(4.8978 0 0 -5.2998 488.2412 337.0679)">
				</image>
			</g>
		</g>
	</g>
	<g>
		<defs>
			<path id="SVGID_63_" d="M579.084,364.976c-0.044,0-0.077,0-0.121,0c0.051,0,0.091,0,0.141,0
				C579.09,364.976,579.09,364.976,579.084,364.976 M579.104,364.976c0.397,0,0.808,0,1.202-0.015
				C579.902,364.969,579.494,364.976,579.104,364.976 M578.702,364.983c-0.043-0.007-0.093-0.007-0.143-0.007
				c-4.121-0.015-8.241-0.326-12.335-0.947C570.381,364.666,574.552,364.976,578.702,364.983 M519.033,339.605h0.006
				c0.164,0.164,0.32,0.326,0.49,0.495c0.021,0.015,0.041,0.036,0.063,0.064c0.118,0.127,0.24,0.247,0.358,0.368
				c0.057,0.057,0.122,0.12,0.192,0.184c0.07,0.07,0.147,0.155,0.225,0.232c0.185,0.177,0.368,0.354,0.545,0.538
				c0.009,0.007,0.016,0.007,0.016,0.015c0.12,0.112,0.238,0.226,0.352,0.339c0.016,0.007,0.029,0.021,0.029,0.035
				c3.47,3.316,7.267,6.355,11.354,9.083c-3.572-2.396-6.992-5.103-10.251-8.122c-2.382-2.206-4.608-4.525-6.673-6.928
				c-0.029-0.015-0.043-0.021-0.07-0.021C516.742,337.153,517.874,338.397,519.033,339.605"/>
		</defs>
		<clipPath id="SVGID_64_">
			<use xlink:href="#SVGID_63_"  overflow="visible"/>
		</clipPath>
		
			<radialGradient id="SVGID_65_" cx="-180.1563" cy="861.2549" r="7.2271" gradientTransform="matrix(11.4718 0 0 -11.4718 2645.5034 10162.1836)" gradientUnits="userSpaceOnUse">
			<stop  offset="0" style="stop-color:#162B75"/>
			<stop  offset="0.75" style="stop-color:#162B75"/>
			<stop  offset="0.9" style="stop-color:#162B75"/>
			<stop  offset="1" style="stop-color:#162B75"/>
		</radialGradient>
		<rect x="515.669" y="335.887" clip-path="url(#SVGID_64_)" fill="url(#SVGID_65_)" width="64.637" height="29.096"/>
	</g>
	<g>
		<defs>
			<path id="SVGID_66_" d="M578.56,364.976c0.05,0,0.1,0,0.149,0.007c0.084,0,0.164,0,0.247,0c0.044-0.007,0.077-0.007,0.128-0.007
				H578.56z"/>
		</defs>
		<clipPath id="SVGID_67_">
			<use xlink:href="#SVGID_66_"  overflow="visible"/>
		</clipPath>
		<g clip-path="url(#SVGID_67_)">
			<defs>
				<rect id="SVGID_68_" x="577.647" y="363.951" width="2.504" height="1.874"/>
			</defs>
			<clipPath id="SVGID_69_">
				<use xlink:href="#SVGID_68_"  overflow="visible"/>
			</clipPath>
			<g transform="matrix(1 0 0 1 -2.745950e-005 -9.627773e-006)" clip-path="url(#SVGID_69_)">
				
					<image overflow="visible" width="1" height="1" xlink:href="F7C850CF.jpg"  transform="matrix(2.501 0 0 -1.8758 577.6475 365.8242)">
				</image>
			</g>
		</g>
	</g>
	<g>
		<defs>
			<path id="SVGID_70_" d="M634.333,343.649c-1.47,1.329-2.969,2.601-4.502,3.81c0.091-0.078,0.177-0.142,0.268-0.212
				c0.05-0.043,0.106-0.085,0.156-0.127c0.077-0.057,0.147-0.114,0.228-0.17c0.154-0.135,0.311-0.254,0.465-0.374
				c0.022-0.015,0.043-0.036,0.057-0.057c2.998-2.404,5.826-5.041,8.482-7.896C637.839,340.383,636.115,342.059,634.333,343.649"/>
		</defs>
		<clipPath id="SVGID_71_">
			<use xlink:href="#SVGID_70_"  overflow="visible"/>
		</clipPath>
		<g clip-path="url(#SVGID_71_)">
			<defs>
				<rect id="SVGID_72_" x="628.92" y="337.068" width="11.881" height="11.253"/>
			</defs>
			<clipPath id="SVGID_73_">
				<use xlink:href="#SVGID_72_"  overflow="visible"/>
			</clipPath>
			<g transform="matrix(1 0 0 1 1.663509e-005 1.120484e-005)" clip-path="url(#SVGID_73_)">
				
					<image overflow="visible" width="3" height="3" xlink:href="CFF3AB8B.jpg"  transform="matrix(3.9599 0 0 -3.7515 628.9199 348.3213)">
				</image>
			</g>
		</g>
	</g>
	<g>
		<defs>
			<path id="SVGID_74_" d="M515.739,335.909c0.178,0.042,0.354,0.099,0.531,0.149c-21.421-24.734-27.019-60.956-11.297-91.96
				c1.823-3.598,3.881-7.004,6.135-10.229C489.082,264.796,490.955,307.047,515.739,335.909"/>
		</defs>
		<clipPath id="SVGID_75_">
			<use xlink:href="#SVGID_74_"  overflow="visible"/>
		</clipPath>
		<g clip-path="url(#SVGID_75_)">
			<defs>
				<rect id="SVGID_76_" x="488.241" y="232.647" width="28.757" height="104.421"/>
			</defs>
			<clipPath id="SVGID_77_">
				<use xlink:href="#SVGID_76_"  overflow="visible"/>
			</clipPath>
			<g transform="matrix(1 0 0 1 -1.725879e-005 -3.370049e-005)" clip-path="url(#SVGID_77_)">
				
					<image overflow="visible" width="6" height="20" xlink:href="CFF3AB89.jpg"  transform="matrix(4.7936 0 0 -5.2209 488.2412 337.0679)">
				</image>
			</g>
		</g>
	</g>
	<g>
		<defs>
			<path id="SVGID_78_" d="M522.412,342.836c3.259,3.019,6.679,5.725,10.251,8.122c0.691,0.467,1.406,0.913,2.111,1.357
				c0.009,0.008,0.016,0.015,0.022,0.021c0.127,0.078,0.248,0.148,0.368,0.226c0.07,0.043,0.141,0.078,0.204,0.128
				c0.079,0.042,0.149,0.085,0.227,0.134c1.837,1.11,3.732,2.17,5.684,3.152c8.051,4.086,16.47,6.744,24.945,8.053
				c4.094,0.621,8.214,0.932,12.335,0.947h0.524c0.396,0,0.812-0.007,1.222-0.015c0.157,0,0.304-0.007,0.468-0.007
				c0.084-0.007,0.163-0.007,0.254-0.007c0.134-0.007,0.268-0.007,0.41-0.007c0.113-0.007,0.227-0.007,0.331-0.015
				c0.113-0.014,0.227-0.014,0.334-0.021c0.113-0.008,0.247-0.008,0.367-0.015c0.134-0.007,0.254-0.014,0.388-0.014
				c0.093-0.008,0.199-0.015,0.304-0.015c0.1-0.007,0.193-0.014,0.297-0.021c0.164-0.007,0.327-0.021,0.481-0.027
				c0.07,0,0.149-0.008,0.227-0.015c0.184-0.007,0.354-0.022,0.537-0.035c0.07-0.007,0.141-0.014,0.211-0.014
				c0.12-0.008,0.24-0.021,0.368-0.03c0.036,0,0.072-0.007,0.122-0.014c0.211-0.013,0.422-0.028,0.642-0.05
				c0.057-0.007,0.113-0.014,0.177-0.014c0.204-0.028,0.418-0.043,0.622-0.063c0.05-0.007,0.093-0.015,0.127-0.015
				c0.403-0.042,0.801-0.077,1.195-0.127h0.007c0.27-0.028,0.53-0.063,0.8-0.092c0.014,0,0.027,0,0.041,0
				c5.33-0.678,10.575-1.858,15.665-3.52c0.014-0.007,0.036-0.015,0.057-0.021c0.233-0.07,0.467-0.155,0.694-0.226
				c0.026-0.015,0.054-0.021,0.084-0.028c0.367-0.128,0.741-0.262,1.115-0.389c0.029-0.015,0.063-0.028,0.1-0.035
				c0.197-0.078,0.411-0.148,0.615-0.227c0.057-0.021,0.106-0.035,0.156-0.057c0.184-0.07,0.354-0.134,0.528-0.197
				c0.072-0.028,0.143-0.05,0.213-0.079c0.101-0.035,0.197-0.085,0.305-0.12c0.106-0.042,0.197-0.077,0.304-0.113
				c0.127-0.049,0.268-0.099,0.396-0.155c0.084-0.035,0.175-0.07,0.261-0.099c0.134-0.063,0.268-0.113,0.395-0.162
				c0.107-0.043,0.207-0.092,0.313-0.128c0.091-0.035,0.168-0.07,0.254-0.099c0.154-0.07,0.297-0.134,0.451-0.197
				c0.079-0.028,0.156-0.064,0.227-0.092c0.134-0.05,0.254-0.106,0.388-0.17c0.08-0.028,0.164-0.063,0.241-0.099
				c0.143-0.057,0.27-0.107,0.403-0.17c0.063-0.035,0.134-0.063,0.197-0.092c0.163-0.07,0.32-0.142,0.48-0.219
				c0.063-0.021,0.121-0.057,0.193-0.078c0.168-0.077,0.331-0.149,0.501-0.234c0.05-0.021,0.091-0.042,0.134-0.063
				c0.149-0.07,0.304-0.134,0.444-0.212c0.043-0.014,0.093-0.035,0.144-0.056c0.16-0.078,0.338-0.156,0.508-0.248
				c0.057-0.028,0.106-0.049,0.156-0.07c0.177-0.085,0.345-0.163,0.515-0.254c0.043-0.021,0.079-0.036,0.12-0.057
				c0.17-0.085,0.334-0.163,0.511-0.255c0.014-0.007,0.041-0.021,0.063-0.028c0.184-0.092,0.36-0.184,0.551-0.283
				c0.034-0.014,0.063-0.035,0.104-0.057c0.177-0.085,0.354-0.177,0.537-0.275c0.037-0.014,0.066-0.035,0.101-0.05
				c0.19-0.099,0.367-0.197,0.558-0.296c0.007-0.008,0.007-0.008,0.016-0.008c0.19-0.099,0.374-0.204,0.564-0.304
				c0.027-0.014,0.051-0.028,0.07-0.042c0.185-0.099,0.368-0.205,0.552-0.304c0.029-0.015,0.057-0.028,0.093-0.043
				c0.19-0.112,0.374-0.211,0.551-0.311c0.014-0.014,0.034-0.021,0.043-0.028c0.191-0.112,0.382-0.219,0.565-0.317
				c0.007-0.008,0.014-0.021,0.027-0.028c0.184-0.107,0.383-0.212,0.566-0.333c0.021-0.015,0.041-0.021,0.063-0.035
				c0.19-0.106,0.381-0.22,0.558-0.332c0.021-0.008,0.027-0.021,0.051-0.028c0.381-0.227,0.762-0.453,1.131-0.693
				c0.027-0.015,0.048-0.028,0.077-0.043c0.178-0.112,0.354-0.226,0.531-0.339c0.027-0.021,0.055-0.035,0.084-0.057
				c0.184-0.105,0.36-0.226,0.537-0.346c0.014-0.007,0.027-0.015,0.034-0.022c0.17-0.105,0.326-0.219,0.497-0.325
				c0.034-0.021,0.07-0.042,0.104-0.063c0.17-0.112,0.317-0.219,0.48-0.324c0.05-0.028,0.1-0.072,0.149-0.107
				c0.154-0.099,0.317-0.205,0.458-0.311c0.057-0.035,0.106-0.071,0.156-0.106c0.121-0.077,0.241-0.169,0.368-0.248
				c0.063-0.042,0.127-0.085,0.19-0.134c0.134-0.092,0.254-0.184,0.388-0.269c0.072-0.05,0.136-0.113,0.213-0.163
				c0.127-0.092,0.254-0.176,0.381-0.276c0.087-0.057,0.171-0.12,0.255-0.177c0.072-0.042,0.136-0.105,0.199-0.155
				c0.163-0.105,0.311-0.212,0.467-0.339c0.041-0.028,0.084-0.057,0.118-0.085c0.447-0.324,0.871-0.649,1.295-0.982
				c1.533-1.209,3.032-2.481,4.502-3.81c-15.261,13.607-35.061,21.071-55.35,21.071c-12.63,0-25.446-2.897-37.484-9.005
				c-9.904-5.019-18.38-11.749-25.229-19.658c-0.177-0.05-0.354-0.107-0.531-0.149C517.804,338.312,520.03,340.631,522.412,342.836"
				/>
		</defs>
		<clipPath id="SVGID_79_">
			<use xlink:href="#SVGID_78_"  overflow="visible"/>
		</clipPath>
		<g clip-path="url(#SVGID_79_)">
			<defs>
				<rect id="SVGID_80_" x="514.501" y="335.188" width="120.674" height="30.637"/>
			</defs>
			<clipPath id="SVGID_81_">
				<use xlink:href="#SVGID_80_"  overflow="visible"/>
			</clipPath>
			<g transform="matrix(1 0 0 1 8.571871e-006 1.904682e-005)" clip-path="url(#SVGID_81_)">
				
					<image overflow="visible" width="23" height="6" xlink:href="CFF3AB8F.jpg"  transform="matrix(5.2467 0 0 -5.1062 514.501 365.8242)">
				</image>
			</g>
		</g>
	</g>
	<g>
		<defs>
			<path id="SVGID_82_" d="M511.108,233.869c0.016-0.007,0.022-0.028,0.036-0.042C511.131,233.841,511.124,233.862,511.108,233.869
				 M551.889,203.346c-0.007,0-0.021,0.007-0.027,0.007c-0.19,0.063-0.367,0.127-0.558,0.191c-0.043,0.014-0.094,0.035-0.137,0.049
				c-0.161,0.057-0.331,0.113-0.485,0.177c-0.072,0.021-0.143,0.05-0.206,0.063c-0.141,0.063-0.297,0.12-0.438,0.17
				c-0.086,0.028-0.17,0.063-0.264,0.092c-0.134,0.049-0.261,0.105-0.388,0.148c-0.1,0.042-0.197,0.077-0.29,0.112
				c-0.127,0.05-0.24,0.093-0.36,0.142c-0.113,0.05-0.225,0.085-0.338,0.127c-0.113,0.05-0.214,0.085-0.327,0.128
				c-0.12,0.055-0.247,0.105-0.367,0.147c-0.091,0.043-0.197,0.078-0.281,0.113c-0.136,0.063-0.276,0.127-0.41,0.177
				c-0.093,0.035-0.17,0.07-0.254,0.099c-0.157,0.063-0.305,0.135-0.454,0.192c-0.07,0.035-0.134,0.055-0.204,0.092
				c-0.177,0.077-0.36,0.148-0.53,0.226c-0.036,0.021-0.087,0.043-0.127,0.057c-0.197,0.085-0.404,0.184-0.608,0.269
				c-0.014,0.007-0.036,0.014-0.05,0.022c-9.975,4.475-19.101,10.921-26.734,19.128c-0.014,0.021-0.027,0.035-0.036,0.042
				c-0.161,0.164-0.324,0.347-0.481,0.509c-0.014,0.021-0.033,0.043-0.054,0.071c-0.15,0.156-0.291,0.325-0.44,0.48
				c-0.027,0.028-0.05,0.057-0.077,0.078c-1.019,1.152-2.021,2.339-2.976,3.563c-0.022,0.021-0.043,0.042-0.057,0.07
				c-0.106,0.127-0.213,0.262-0.311,0.396c-0.036,0.043-0.07,0.092-0.113,0.135c-0.093,0.127-0.184,0.24-0.276,0.36
				c-0.084,0.112-0.178,0.226-0.262,0.346c-0.077,0.106-0.163,0.205-0.24,0.318c-0.084,0.12-0.184,0.232-0.274,0.36
				c-0.043,0.064-0.093,0.128-0.136,0.191c-0.098,0.127-0.19,0.24-0.268,0.374c-0.05,0.063-0.106,0.127-0.149,0.184
				c-0.091,0.135-0.168,0.255-0.268,0.382c-0.044,0.063-0.094,0.12-0.134,0.184c-0.094,0.134-0.193,0.269-0.284,0.396
				c-0.021,0.042-0.05,0.078-0.07,0.113c2.064-2.898,4.325-5.677,6.8-8.348c5.202-5.606,10.999-10.342,17.2-14.187
				c6.989-4.326,14.489-7.529,22.237-9.601c0.014-0.014,0.022-0.021,0.036-0.035C555.558,202.159,553.714,202.724,551.889,203.346"
				/>
		</defs>
		<clipPath id="SVGID_83_">
			<use xlink:href="#SVGID_82_"  overflow="visible"/>
		</clipPath>
		<g clip-path="url(#SVGID_83_)">
			<defs>
				<rect id="SVGID_84_" x="510.127" y="200.759" width="48.139" height="33.768"/>
			</defs>
			<clipPath id="SVGID_85_">
				<use xlink:href="#SVGID_84_"  overflow="visible"/>
			</clipPath>
			<g transform="matrix(1 0 0 1 4.110974e-005 -4.171836e-006)" clip-path="url(#SVGID_85_)">
				
					<image overflow="visible" width="9" height="7" xlink:href="CFF3AB8A.jpg"  transform="matrix(5.3494 0 0 -4.8234 510.127 234.5269)">
				</image>
			</g>
		</g>
	</g>
	<g>
		<defs>
			<path id="SVGID_86_" d="M575.38,198.907c-0.022,0.006-0.05,0.006-0.077,0.006c-0.186,0.008-0.369,0.022-0.554,0.028
				c-0.057,0-0.12,0.008-0.184,0.008c-0.147,0.007-0.297,0.014-0.444,0.021c-0.093,0.008-0.177,0.015-0.261,0.021
				c-0.12,0.007-0.233,0.015-0.347,0.021c-0.12,0-0.24,0.007-0.367,0.021c-0.058,0-0.121,0.015-0.178,0.021
				c-1.266,0.085-2.537,0.205-3.789,0.354c-0.014,0-0.027,0-0.041,0c-0.199,0.028-0.391,0.057-0.588,0.07
				c-0.029,0.007-0.057,0.007-0.084,0.015c-0.186,0.028-0.362,0.042-0.544,0.07c-0.043,0.007-0.093,0.014-0.136,0.022
				c-0.177,0.013-0.354,0.042-0.515,0.077c-0.058,0.008-0.114,0.008-0.171,0.015c-0.156,0.028-0.317,0.049-0.474,0.07
				c-0.077,0.014-0.147,0.021-0.22,0.035c-0.141,0.015-0.281,0.043-0.432,0.063c-0.09,0.008-0.177,0.021-0.254,0.043
				c-0.134,0.021-0.261,0.035-0.395,0.063c-0.106,0.021-0.206,0.042-0.313,0.049c-0.118,0.021-0.225,0.043-0.345,0.057
				c-0.12,0.028-0.24,0.05-0.36,0.063c-0.101,0.021-0.207,0.043-0.291,0.057c-0.147,0.021-0.297,0.05-0.431,0.085
				c-0.086,0.015-0.156,0.028-0.233,0.042c-0.177,0.028-0.354,0.072-0.538,0.1c-0.033,0.007-0.077,0.014-0.113,0.028
				c-1.78,0.346-3.54,0.763-5.286,1.222c-0.014,0.015-0.022,0.021-0.036,0.035c7.035-1.873,14.271-2.813,21.511-2.813
				c7.424,0,14.851,0.983,22.07,2.977c-5.366-1.493-10.796-2.418-16.232-2.807c-0.034,0-0.07-0.015-0.111-0.015
				c-0.17-0.014-0.34-0.021-0.503-0.027c-0.091-0.008-0.184-0.015-0.261-0.021c-0.127-0.007-0.24-0.015-0.354-0.021
				c-0.121-0.007-0.241-0.014-0.368-0.014c-0.07,0-0.134-0.008-0.213-0.015c-0.154-0.007-0.304-0.014-0.451-0.022
				c-0.036,0-0.057,0-0.093,0c-1.166-0.048-2.339-0.077-3.504-0.077C577.705,198.836,576.546,198.865,575.38,198.907"/>
		</defs>
		<clipPath id="SVGID_87_">
			<use xlink:href="#SVGID_86_"  overflow="visible"/>
		</clipPath>
		<g clip-path="url(#SVGID_87_)">
			<defs>
				<rect id="SVGID_88_" x="556.393" y="197.634" width="45.643" height="5.005"/>
			</defs>
			<clipPath id="SVGID_89_">
				<use xlink:href="#SVGID_88_"  overflow="visible"/>
			</clipPath>
			<g transform="matrix(1 0 0 1 1.441710e-005 1.095165e-005)" clip-path="url(#SVGID_89_)">
				
					<image overflow="visible" width="9" height="1" xlink:href="CFF3AB95.jpg"  transform="matrix(5.0715 0 0 -5.002 556.3926 202.6396)">
				</image>
			</g>
		</g>
	</g>
	<g>
		<defs>
			<path id="SVGID_90_" d="M637.238,222.871c2.257,2.233,4.37,4.574,6.327,6.991c-0.106-0.148-0.233-0.291-0.347-0.432
				c-0.007-0.014-0.021-0.028-0.027-0.042c-0.1-0.113-0.184-0.219-0.276-0.339c-1.773-2.142-3.66-4.213-5.661-6.193
				C637.245,222.856,637.238,222.871,637.238,222.871"/>
		</defs>
		<clipPath id="SVGID_91_">
			<use xlink:href="#SVGID_90_"  overflow="visible"/>
		</clipPath>
		<g clip-path="url(#SVGID_91_)">
			<defs>
				<rect id="SVGID_92_" x="636.427" y="222.021" width="8.128" height="8.752"/>
			</defs>
			<clipPath id="SVGID_93_">
				<use xlink:href="#SVGID_92_"  overflow="visible"/>
			</clipPath>
			<g transform="matrix(1 0 0 1 -5.572448e-005 -9.042587e-006)" clip-path="url(#SVGID_93_)">
				
					<image overflow="visible" width="2" height="2" xlink:href="CFF3AB96.jpg"  transform="matrix(4.0641 0 0 -4.3768 636.4268 230.7734)">
				</image>
			</g>
		</g>
	</g>
	<g>
		<defs>
			<path id="SVGID_94_" d="M635.288,221.011c0.664,0.607,1.315,1.23,1.95,1.859c0,0,0.007-0.015,0.016-0.015
				c-1.916-1.887-3.937-3.697-6.051-5.4c-0.043-0.043-0.079-0.071-0.127-0.106c-0.106-0.092-0.213-0.177-0.333-0.276
				c-0.063-0.05-0.127-0.099-0.19-0.148c-0.057-0.042-0.113-0.078-0.164-0.127c-0.381-0.311-0.771-0.608-1.172-0.912
				C631.294,217.491,633.324,219.194,635.288,221.011"/>
		</defs>
		<clipPath id="SVGID_95_">
			<use xlink:href="#SVGID_94_"  overflow="visible"/>
		</clipPath>
		<g clip-path="url(#SVGID_95_)">
			<defs>
				<rect id="SVGID_96_" x="628.296" y="214.515" width="10.004" height="9.38"/>
			</defs>
			<clipPath id="SVGID_97_">
				<use xlink:href="#SVGID_96_"  overflow="visible"/>
			</clipPath>
			<g transform="matrix(1 0 0 1 -5.077571e-006 -1.094727e-005)" clip-path="url(#SVGID_97_)">
				
					<image overflow="visible" width="2" height="2" xlink:href="CFF3AB97.jpg"  transform="matrix(5.002 0 0 -4.6894 628.2959 223.8945)">
				</image>
			</g>
		</g>
	</g>
	<g>
		<defs>
			<path id="SVGID_98_" d="M659.527,263.559c1.513,6.63,2.198,13.431,2.064,20.209c0.106-0.085,0.197-0.177,0.297-0.262
				c0-0.169,0.007-0.333,0.007-0.495c0-0.113,0-0.226,0-0.339c0-0.078,0-0.17,0-0.255v-0.989
				c-0.029-5.147-0.544-10.265-1.513-15.284c-0.014-0.042-0.027-0.099-0.043-0.162c-0.014-0.113-0.043-0.227-0.063-0.347
				c-0.014-0.09-0.034-0.176-0.057-0.275c-0.014-0.07-0.027-0.141-0.041-0.212c-0.022-0.12-0.043-0.232-0.072-0.339
				c-0.007-0.057-0.021-0.105-0.027-0.148c-0.036-0.127-0.063-0.269-0.093-0.402c0-0.015-0.008-0.035-0.008-0.042
				c-0.063-0.297-0.127-0.581-0.19-0.87C659.698,263.417,659.611,263.487,659.527,263.559 M651.173,241.751
				c3.003,5.408,5.363,11.077,7.076,16.909c0.077-0.092,0.153-0.177,0.233-0.269c-0.367-1.266-0.771-2.517-1.211-3.76
				c-0.048-0.142-0.091-0.269-0.134-0.411c-0.007-0.014-0.014-0.028-0.021-0.05c-1.543-4.361-3.457-8.589-5.711-12.66
				C651.334,241.596,651.25,241.673,651.173,241.751 M636.95,223.062c4.622,4.56,8.596,9.542,11.925,14.823
				c0.084-0.085,0.161-0.162,0.233-0.248c-1.449-2.297-3.019-4.546-4.688-6.708c-0.007,0-0.007,0-0.007,0
				c-0.106-0.12-0.19-0.247-0.29-0.367c-0.184-0.234-0.368-0.474-0.559-0.7c-1.957-2.417-4.07-4.758-6.327-6.991
				C637.147,222.941,637.048,222.998,636.95,223.062 M535.145,211.292c6.939-4.263,14.398-7.415,22.097-9.452
				c0.05-0.049,0.091-0.099,0.141-0.149C549.634,203.763,542.134,206.966,535.145,211.292"/>
		</defs>
		<clipPath id="SVGID_99_">
			<use xlink:href="#SVGID_98_"  overflow="visible"/>
		</clipPath>
		<g clip-path="url(#SVGID_99_)">
			<defs>
				<rect id="SVGID_100_" x="534.507" y="200.759" width="128.18" height="83.787"/>
			</defs>
			<clipPath id="SVGID_101_">
				<use xlink:href="#SVGID_100_"  overflow="visible"/>
			</clipPath>
			<g transform="matrix(1 0 0 1 3.269088e-006 1.316360e-005)" clip-path="url(#SVGID_101_)">
				
					<image overflow="visible" width="24" height="16" xlink:href="CFF3AB99.jpg"  transform="matrix(5.3407 0 0 -5.2365 534.5068 284.5464)">
				</image>
			</g>
		</g>
	</g>
	<g>
		<defs>
			<path id="SVGID_102_" d="M557.382,201.691c-0.05,0.05-0.091,0.1-0.141,0.149c6.982-1.845,14.165-2.778,21.354-2.778
				c20.196,0,40.434,7.316,56.402,22.147c0.664,0.608,1.314,1.229,1.952,1.852c0.098-0.064,0.197-0.121,0.288-0.191
				c-0.635-0.629-1.286-1.252-1.95-1.859c-1.964-1.817-3.994-3.52-6.071-5.125c-3.967-3.019-8.258-5.719-12.859-8.044
				c-0.17-0.085-0.324-0.164-0.488-0.24c-0.14-0.072-0.29-0.149-0.424-0.22c-0.014-0.007-0.036-0.014-0.05-0.021
				c-4.715-2.319-9.543-4.149-14.433-5.506c-7.22-1.994-14.646-2.977-22.07-2.977C571.653,198.878,564.417,199.818,557.382,201.691"
				/>
		</defs>
		<clipPath id="SVGID_103_">
			<use xlink:href="#SVGID_102_"  overflow="visible"/>
		</clipPath>
		<g clip-path="url(#SVGID_103_)">
			<defs>
				<rect id="SVGID_104_" x="556.393" y="197.634" width="81.907" height="26.26"/>
			</defs>
			<clipPath id="SVGID_105_">
				<use xlink:href="#SVGID_104_"  overflow="visible"/>
			</clipPath>
			<g transform="matrix(1 0 0 1 -3.458932e-006 -1.359991e-005)" clip-path="url(#SVGID_105_)">
				
					<image overflow="visible" width="16" height="5" xlink:href="CFF3AB9B.jpg"  transform="matrix(5.1192 0 0 -5.2521 556.3926 223.8945)">
				</image>
			</g>
		</g>
	</g>
	<g>
		<defs>
			<path id="SVGID_106_" d="M658.249,258.66c0.474,1.618,0.904,3.259,1.278,4.899c0.084-0.072,0.171-0.142,0.261-0.212
				c-0.02-0.099-0.04-0.177-0.07-0.269c-0.367-1.569-0.777-3.146-1.235-4.687C658.402,258.483,658.326,258.568,658.249,258.66"/>
		</defs>
		<clipPath id="SVGID_107_">
			<use xlink:href="#SVGID_106_"  overflow="visible"/>
		</clipPath>
		<g clip-path="url(#SVGID_107_)">
			<defs>
				<rect id="SVGID_108_" x="657.061" y="257.657" width="3.746" height="6.877"/>
			</defs>
			<clipPath id="SVGID_109_">
				<use xlink:href="#SVGID_108_"  overflow="visible"/>
			</clipPath>
			<g transform="matrix(1 0 0 1 -5.910784e-005 1.045631e-005)" clip-path="url(#SVGID_109_)">
				
					<image overflow="visible" width="1" height="2" xlink:href="CFF3AB9E.jpg"  transform="matrix(3.7515 0 0 -3.4389 657.0605 264.5342)">
				</image>
			</g>
		</g>
	</g>
	<g>
		<defs>
			<path id="SVGID_110_" d="M648.875,237.885c0.806,1.272,1.569,2.566,2.298,3.867c0.077-0.078,0.161-0.155,0.233-0.24
				c-0.297-0.531-0.607-1.067-0.921-1.604c-0.451-0.763-0.905-1.52-1.377-2.27C649.036,237.723,648.959,237.8,648.875,237.885"/>
		</defs>
		<clipPath id="SVGID_111_">
			<use xlink:href="#SVGID_110_"  overflow="visible"/>
		</clipPath>
		<g clip-path="url(#SVGID_111_)">
			<defs>
				<rect id="SVGID_112_" x="647.68" y="236.4" width="4.375" height="6.248"/>
			</defs>
			<clipPath id="SVGID_113_">
				<use xlink:href="#SVGID_112_"  overflow="visible"/>
			</clipPath>
			<g transform="matrix(1 0 0 1 2.288719e-005 4.959425e-006)" clip-path="url(#SVGID_113_)">
				
					<image overflow="visible" width="1" height="2" xlink:href="CFF3ABB2.jpg"  transform="matrix(4.3768 0 0 -3.1263 647.6797 242.6484)">
				</image>
			</g>
		</g>
	</g>
	<g>
		<defs>
			<path id="SVGID_114_" d="M661.371,288.462c-0.594,7.811-2.29,15.559-5.096,22.988c0.077-0.057,0.147-0.12,0.227-0.177
				c0.715-1.887,1.356-3.782,1.931-5.676c0.007-0.021,0.014-0.035,0.014-0.057c0.057-0.19,0.12-0.389,0.177-0.573
				c0.007-0.035,0.014-0.092,0.027-0.127c0.029-0.078,0.05-0.155,0.072-0.227c0.021-0.077,0.041-0.156,0.055-0.226
				c0.022-0.063,0.043-0.135,0.063-0.198c0.043-0.134,0.072-0.275,0.113-0.417c0.009-0.02,0.016-0.049,0.022-0.084
				c0.034-0.12,0.07-0.248,0.104-0.382c0.009-0.035,0.016-0.057,0.022-0.092c1.329-4.969,2.178-9.981,2.559-15
				C661.571,288.3,661.465,288.392,661.371,288.462"/>
		</defs>
		<clipPath id="SVGID_115_">
			<use xlink:href="#SVGID_114_"  overflow="visible"/>
		</clipPath>
		<g clip-path="url(#SVGID_115_)">
			<defs>
				<rect id="SVGID_116_" x="655.18" y="287.048" width="7.507" height="25.632"/>
			</defs>
			<clipPath id="SVGID_117_">
				<use xlink:href="#SVGID_116_"  overflow="visible"/>
			</clipPath>
			<g transform="matrix(1 0 0 1 5.459346e-005 -5.188074e-006)" clip-path="url(#SVGID_117_)">
				
					<image overflow="visible" width="2" height="5" xlink:href="CFF3ABB1.jpg"  transform="matrix(3.7515 0 0 -5.1271 655.1797 312.6807)">
				</image>
			</g>
		</g>
	</g>
	<g>
		<defs>
			<path id="SVGID_118_" d="M656.275,311.45c-3.684,9.769-9.28,18.987-16.81,27.11c-1.563,1.696-3.173,3.301-4.85,4.827
				c1.888-1.703,3.711-3.491,5.45-5.386c0.311-0.339,0.614-0.678,0.919-1.01c0.007-0.015,0.029-0.036,0.036-0.05
				c0.141-0.156,0.274-0.304,0.417-0.466c0.027-0.036,0.057-0.071,0.084-0.1c0.113-0.148,0.24-0.282,0.36-0.424
				c0.043-0.049,0.084-0.092,0.134-0.141c0.1-0.128,0.207-0.255,0.32-0.382c0.048-0.057,0.098-0.134,0.147-0.191
				c0.106-0.113,0.197-0.233,0.297-0.347c0.07-0.077,0.134-0.169,0.197-0.241c0.086-0.105,0.163-0.204,0.247-0.311
				c0.093-0.099,0.177-0.212,0.27-0.325c0.058-0.077,0.114-0.149,0.171-0.219c0.141-0.17,0.268-0.332,0.401-0.502
				c0.022-0.014,0.036-0.035,0.043-0.063c0.147-0.184,0.304-0.375,0.451-0.565c0.016-0.036,0.036-0.057,0.057-0.085
				c0.129-0.155,0.247-0.326,0.374-0.481c0.036-0.057,0.08-0.113,0.113-0.162c0.107-0.135,0.214-0.284,0.32-0.417
				c0.048-0.063,0.098-0.135,0.141-0.198c0.1-0.127,0.19-0.254,0.283-0.381c0.057-0.072,0.113-0.157,0.168-0.234
				c0.079-0.113,0.177-0.233,0.249-0.347c0.063-0.077,0.12-0.176,0.185-0.261c0.076-0.1,0.153-0.212,0.233-0.325
				c0.063-0.085,0.134-0.184,0.197-0.275c0.07-0.099,0.141-0.212,0.218-0.311c0.063-0.092,0.129-0.198,0.199-0.29
				c0.063-0.105,0.134-0.206,0.197-0.304c0.07-0.099,0.141-0.212,0.218-0.317c0.059-0.085,0.113-0.185,0.177-0.269
				c0.073-0.114,0.156-0.234,0.227-0.34c0.057-0.084,0.107-0.176,0.164-0.254c0.084-0.12,0.163-0.248,0.24-0.361
				c0.05-0.078,0.106-0.162,0.154-0.247c0.079-0.12,0.156-0.247,0.24-0.368c0.05-0.078,0.093-0.155,0.143-0.233
				c0.077-0.127,0.17-0.262,0.247-0.396c0.041-0.064,0.077-0.142,0.127-0.212c0.084-0.127,0.171-0.269,0.255-0.402
				c0.036-0.065,0.076-0.142,0.12-0.199c0.093-0.142,0.17-0.29,0.254-0.431c0.043-0.063,0.079-0.127,0.113-0.192
				c0.086-0.141,0.177-0.289,0.261-0.438c0.036-0.063,0.065-0.113,0.1-0.162c0.086-0.157,0.177-0.319,0.27-0.46
				c0.027-0.063,0.064-0.12,0.084-0.169c0.091-0.163,0.191-0.319,0.268-0.481c0.037-0.05,0.057-0.092,0.087-0.142
				c0.1-0.169,0.184-0.326,0.274-0.488c0.022-0.05,0.05-0.092,0.086-0.148c0.084-0.162,0.177-0.325,0.261-0.494
				c0.022-0.043,0.057-0.085,0.07-0.127c0.093-0.17,0.184-0.34,0.276-0.516c0.027-0.037,0.043-0.085,0.07-0.12
				c0.091-0.177,0.17-0.354,0.268-0.524c0.107-0.219,0.221-0.438,0.334-0.643c0.141-0.291,0.29-0.573,0.424-0.855
				c0.021-0.043,0.043-0.078,0.05-0.113c0.057-0.114,0.113-0.206,0.154-0.311c0.036-0.071,0.063-0.135,0.1-0.198
				c0.036-0.07,0.07-0.148,0.113-0.219c0.044-0.099,0.091-0.199,0.134-0.297c0.021-0.042,0.044-0.092,0.063-0.142
				c0.063-0.134,0.128-0.261,0.19-0.396c0.008-0.007,0.017-0.021,0.023-0.042c0.854-1.852,1.646-3.732,2.367-5.613
				C656.423,311.33,656.353,311.394,656.275,311.45"/>
		</defs>
		<clipPath id="SVGID_119_">
			<use xlink:href="#SVGID_118_"  overflow="visible"/>
		</clipPath>
		<g clip-path="url(#SVGID_119_)">
			<defs>
				<rect id="SVGID_120_" x="633.301" y="310.178" width="24.381" height="34.39"/>
			</defs>
			<clipPath id="SVGID_121_">
				<use xlink:href="#SVGID_120_"  overflow="visible"/>
			</clipPath>
			<g transform="matrix(1 0 0 1 -2.185953e-005 1.308548e-006)" clip-path="url(#SVGID_121_)">
				
					<image overflow="visible" width="5" height="7" xlink:href="CFF3ABBE.jpg"  transform="matrix(4.877 0 0 -4.9127 633.3008 344.5679)">
				</image>
			</g>
		</g>
	</g>
	<g>
		<defs>
			<path id="SVGID_122_" d="M661.592,283.769c-0.021,1.569-0.106,3.139-0.221,4.694c0.094-0.07,0.2-0.163,0.291-0.248
				c0.1-1.435,0.17-2.855,0.22-4.284c0-0.148,0.007-0.289,0.007-0.424C661.789,283.592,661.698,283.684,661.592,283.769"/>
		</defs>
		<clipPath id="SVGID_123_">
			<use xlink:href="#SVGID_122_"  overflow="visible"/>
		</clipPath>
		<g clip-path="url(#SVGID_123_)">
			<defs>
				<rect id="SVGID_124_" x="660.186" y="282.667" width="2.501" height="6.877"/>
			</defs>
			<clipPath id="SVGID_125_">
				<use xlink:href="#SVGID_124_"  overflow="visible"/>
			</clipPath>
			<g transform="matrix(1 0 0 1 -9.965523e-006 -1.174216e-005)" clip-path="url(#SVGID_125_)">
				
					<image overflow="visible" width="1" height="2" xlink:href="CFF3ABB0.jpg"  transform="matrix(2.501 0 0 -3.4389 660.1855 289.5439)">
				</image>
			</g>
		</g>
	</g>
	<g>
		<defs>
			<path id="SVGID_126_" d="M535.145,211.292c-6.201,3.845-11.998,8.581-17.2,14.187c-2.488,2.687-4.766,5.485-6.836,8.39
				c-1.696,2.411-3.266,4.934-4.722,7.563c-0.487,0.877-0.955,1.768-1.413,2.665c-0.07,0.142-0.149,0.297-0.213,0.439
				c-0.021,0.035-0.05,0.085-0.07,0.127c-0.05,0.106-0.106,0.212-0.154,0.325c-0.022,0.035-0.036,0.077-0.057,0.114
				c-0.079,0.155-0.149,0.289-0.22,0.438c-0.07,0.155-0.141,0.311-0.221,0.453c-0.007,0.028-0.021,0.057-0.034,0.085
				c-0.063,0.134-0.12,0.254-0.184,0.381c-0.014,0.028-0.029,0.057-0.043,0.085c-0.127,0.297-0.268,0.608-0.41,0.912
				c-0.014,0.021-0.021,0.043-0.034,0.071c-0.057,0.134-0.12,0.261-0.177,0.396c-0.014,0.022-0.021,0.049-0.029,0.077
				c-0.063,0.135-0.127,0.291-0.19,0.439c-0.007,0-0.007,0.007-0.007,0.014c-0.077,0.156-0.141,0.312-0.211,0.467
				c-0.01,0.021-0.01,0.028-0.017,0.042c-0.057,0.135-0.12,0.275-0.177,0.41c-0.014,0.028-0.027,0.063-0.041,0.099
				c-0.063,0.142-0.12,0.291-0.177,0.424c0,0.007-0.016,0.014-0.016,0.014c-0.127,0.319-0.254,0.629-0.381,0.955
				c-0.007,0.007-0.021,0.028-0.021,0.057c-0.063,0.149-0.12,0.304-0.177,0.453c-0.014,0-0.014,0.007-0.014,0.014
				c-0.12,0.319-0.24,0.629-0.367,0.948c-0.007,0.021-0.007,0.029-0.017,0.049c-0.054,0.156-0.113,0.312-0.161,0.453
				c-0.006,0.015-0.006,0.015-0.016,0.021c-0.118,0.326-0.231,0.643-0.345,0.961c-0.014,0.014-0.014,0.029-0.022,0.042
				c-0.048,0.156-0.104,0.304-0.154,0.459c-0.007,0.008-0.007,0.008-0.014,0.021c-0.106,0.319-0.22,0.643-0.333,0.968
				c0,0.007,0,0.015-0.007,0.022c-0.05,0.162-0.106,0.317-0.154,0.473c0,0.015,0,0.015-0.009,0.021
				c-0.098,0.326-0.211,0.651-0.312,0.975l-0.007,0.008c-0.043,0.162-0.1,0.324-0.147,0.487c0,0.007,0,0.014-0.006,0.021
				c-0.914,2.977-1.656,5.98-2.228,8.993c0,0.006,0,0.006-0.007,0.013c-0.12,0.665-0.24,1.336-0.34,2
				c-0.178,1.012-0.312,2.015-0.438,3.012c0,0.007,0,0.014,0,0.021c-0.072,0.495-0.127,1.004-0.177,1.491c0,0.007,0,0.014,0,0.021
				c-0.05,0.501-0.1,0.997-0.141,1.484c0,0.014,0,0.029,0,0.035c-0.059,0.501-0.093,1.004-0.129,1.498c0,0,0,0,0,0.008
				c-0.027,0.501-0.063,0.997-0.084,1.491c0,0.006,0,0.021,0,0.035c-0.027,0.494-0.05,0.997-0.057,1.478
				c0,0.013,0,0.028-0.007,0.035c0,0.155-0.007,0.318-0.014,0.467c0,0.014,0,0.021,0,0.027c-0.009,0.326-0.016,0.644-0.022,0.968
				c0,0.029,0,0.05,0,0.072c0,0.148,0,0.289-0.014,0.431c0,0.015,0,0.035,0,0.057c0,0.319,0,0.643,0,0.969c0,0.014,0,0.021,0,0.042
				c0,0.148,0,0.297,0.014,0.445c0,0.015,0,0.035,0,0.057c0,0.319,0.007,0.636,0.014,0.955c0,0.021,0,0.042,0,0.07
				c0.009,0.148,0.009,0.282,0.016,0.431c0,0.015,0,0.028,0,0.043c0.014,0.324,0.014,0.643,0.027,0.968
				c0,0.014,0.007,0.028,0.007,0.042c0.009,0.148,0.016,0.29,0.022,0.431c0,0.028,0,0.057,0,0.085
				c0.007,0.155,0.014,0.304,0.021,0.459c0,0.007,0,0.007,0,0.007c0.007,0.148,0.014,0.319,0.029,0.474c0,0.021,0,0.05,0.007,0.085
				c0.007,0.127,0.014,0.247,0.021,0.382c0.007,0.042,0.007,0.07,0.007,0.105c0.007,0.142,0.014,0.269,0.021,0.41
				c0.009,0.014,0.009,0.035,0.009,0.063c0.014,0.149,0.027,0.311,0.034,0.459c0,0.014,0,0.035,0,0.05
				c0.014,0.141,0.021,0.268,0.036,0.409c0.014,0.042,0.014,0.079,0.014,0.127c0.014,0.128,0.029,0.248,0.036,0.367
				c0,0.028,0,0.057,0.007,0.092c0.014,0.142,0.027,0.304,0.041,0.446c0,0.028,0,0.057,0,0.071c0.016,0.141,0.029,0.261,0.043,0.396
				c0.007,0.042,0.007,0.077,0.014,0.12c0.016,0.12,0.022,0.24,0.036,0.359c0,0.036,0.007,0.071,0.007,0.1
				c0.021,0.156,0.036,0.318,0.05,0.459c0,0.007,0.007,0.021,0.007,0.028c0.014,0.148,0.034,0.291,0.043,0.431
				c0.007,0.035,0.014,0.078,0.027,0.12c0.014,0.127,0.029,0.247,0.043,0.367c0,0.028,0.007,0.063,0.007,0.092
				c0.021,0.142,0.043,0.304,0.057,0.46c0.007,0,0.007,0.021,0.007,0.027c0.021,0.148,0.043,0.277,0.057,0.417
				c0.007,0.05,0.007,0.085,0.021,0.142c0.014,0.099,0.03,0.212,0.043,0.317c0.007,0.043,0.014,0.085,0.014,0.135
				c0.05,0.304,0.101,0.601,0.144,0.905c0.007,0.035,0.014,0.07,0.021,0.105c0.021,0.113,0.033,0.24,0.057,0.36
				c0.007,0.035,0.007,0.063,0.014,0.1c0.021,0.147,0.043,0.282,0.07,0.424c0,0.014,0.007,0.021,0.007,0.042
				c0.022,0.155,0.057,0.304,0.079,0.459c0.007,0.021,0.007,0.05,0.014,0.078c0.027,0.12,0.043,0.254,0.07,0.381
				c0.007,0.028,0.007,0.063,0.014,0.092c0.022,0.149,0.057,0.297,0.079,0.439c0,0.007,0,0.014,0,0.014
				c0.034,0.155,0.063,0.319,0.091,0.474c0,0.028,0.014,0.042,0.014,0.057c0.029,0.127,0.057,0.275,0.086,0.402
				c0.007,0.035,0.007,0.057,0.007,0.085c0.027,0.134,0.057,0.262,0.084,0.403c0,0.021,0.007,0.043,0.016,0.071
				c0.034,0.148,0.063,0.304,0.091,0.453c0,0.014,0.014,0.027,0.014,0.042c0.036,0.142,0.063,0.275,0.093,0.417
				c0.007,0.022,0.014,0.057,0.021,0.085c0.022,0.147,0.057,0.289,0.086,0.431c0,0,0.007,0.014,0.007,0.021
				c0.034,0.155,0.077,0.317,0.111,0.473c0,0.007,0,0.007,0,0.007c0.036,0.156,0.063,0.297,0.106,0.445
				c0.007,0.028,0.017,0.05,0.023,0.079c0.026,0.134,0.057,0.269,0.083,0.396c0.007,0.021,0.014,0.042,0.021,0.077
				c0.08,0.297,0.157,0.587,0.228,0.891c0.007,0.035,0.014,0.07,0.021,0.099c0.036,0.127,0.072,0.262,0.113,0.389
				c0,0.021,0,0.042,0.007,0.057c0.086,0.311,0.163,0.622,0.24,0.925c0.007,0.015,0.007,0.028,0.016,0.05
				c0.05,0.127,0.084,0.269,0.12,0.411c0.007,0.021,0.014,0.049,0.021,0.063c0.084,0.311,0.184,0.615,0.261,0.918
				c0.007,0.015,0.007,0.028,0.016,0.042c0.041,0.142,0.084,0.291,0.127,0.446c0,0.008,0.007,0.015,0.007,0.015
				c0.098,0.317,0.19,0.628,0.288,0.94c0,0.007,0,0.007,0,0.014c0.05,0.148,0.106,0.304,0.15,0.453
				c0.007,0.015,0.007,0.021,0.007,0.028c0.304,0.94,0.628,1.88,0.961,2.813c3.437,9.529,8.603,18.436,15.348,26.212
				c12.108,3.322,24.564,5.76,40.405,5.76c10.433,0,22.344-1.06,36.587-3.619c21.258-3.81,48.026-15.404,63.006-26.749
				c2.806-7.429,4.502-15.177,5.096-22.988c-21.595,18.358-71.281,29.266-80.882,30.912c-0.755,0.12-1.964,0.354-3.068,0.354
				c-1.256,0-2.395-0.297-2.614-1.371c-0.411-2.03,4.871-2.651,4.871-2.651c45.996-9.507,72.173-22.839,81.914-31.938
				c0.134-6.779-0.552-13.579-2.064-20.209c-27.469,22.097-80.607,32.517-82.691,33.089c-0.728,0.197-1.422,0.304-2.043,0.304
				c-1.329,0-2.341-0.487-2.622-1.725c-0.397-1.824,3.554-2.234,3.554-2.234c50.467-12.13,74.874-25.872,82.524-34.333
				c-1.713-5.832-4.073-11.501-7.076-16.909c-17.567,17.58-70.406,30.481-76.351,31.966c-2.178,0.536-3.67,0.713-4.695,0.713
				c-2.043,0-2.227-0.713-2.227-0.713c-2.021-2.638,2.962-3.556,2.962-3.556c46.166-10.696,69.515-23.511,78.013-32.276
				c-3.329-5.281-7.303-10.264-11.925-14.823c-31.238,21.34-71.214,28.219-85.556,28.219c-1.711,0-3.053-0.099-3.979-0.275
				c-9.135-1.838-14.408-10.151-7.105-25.781c3.125-6.672,10.489-17.071,16.931-23.383
				C549.543,203.877,542.084,207.029,535.145,211.292"/>
		</defs>
		<clipPath id="SVGID_127_">
			<use xlink:href="#SVGID_126_"  overflow="visible"/>
		</clipPath>
		<g clip-path="url(#SVGID_127_)">
			<defs>
				<rect id="SVGID_128_" x="488.241" y="200.759" width="174.445" height="141.935"/>
			</defs>
			<clipPath id="SVGID_129_">
				<use xlink:href="#SVGID_128_"  overflow="visible"/>
			</clipPath>
			<g transform="matrix(1 0 0 1 -1.480860e-005 -6.317860e-006)" clip-path="url(#SVGID_129_)">
				
					<image overflow="visible" width="33" height="27" xlink:href="CFF3ABB3.jpg"  transform="matrix(5.2862 0 0 -5.2568 488.2412 342.6943)">
				</image>
			</g>
		</g>
	</g>
	<g>
		<defs>
			<path id="SVGID_130_" d="M557.241,201.84c-6.441,6.313-13.806,16.711-16.931,23.383c-7.303,15.63-2.029,23.943,7.105,25.781
				c0.926,0.177,2.268,0.275,3.979,0.275c14.342,0,54.317-6.879,85.556-28.219c-0.638-0.623-1.288-1.244-1.952-1.852
				c-15.969-14.831-36.213-22.147-56.402-22.147C571.406,199.062,564.224,199.995,557.241,201.84"/>
		</defs>
		<clipPath id="SVGID_131_">
			<use xlink:href="#SVGID_130_"  overflow="visible"/>
		</clipPath>
		<g clip-path="url(#SVGID_131_)">
			<defs>
				<rect id="SVGID_132_" x="532.006" y="198.257" width="105.673" height="53.773"/>
			</defs>
			<clipPath id="SVGID_133_">
				<use xlink:href="#SVGID_132_"  overflow="visible"/>
			</clipPath>
			<g transform="matrix(1 0 0 1 6.011047e-006 -2.938177e-007)" clip-path="url(#SVGID_133_)">
				
					<image overflow="visible" width="20" height="10" xlink:href="CFF3ABB7.jpg"  transform="matrix(5.2834 0 0 -5.3772 532.0059 252.0298)">
				</image>
			</g>
		</g>
	</g>
	<g>
		<defs>
			<path id="SVGID_134_" d="M575.725,292.994c0,0-3.951,0.41-3.554,2.234c0.281,1.237,1.293,1.725,2.622,1.725
				c0.621,0,1.315-0.106,2.043-0.304c2.084-0.573,55.223-10.993,82.691-33.089c-0.374-1.64-0.805-3.281-1.278-4.899
				C650.599,267.122,626.191,280.863,575.725,292.994"/>
		</defs>
		<clipPath id="SVGID_135_">
			<use xlink:href="#SVGID_134_"  overflow="visible"/>
		</clipPath>
		<g clip-path="url(#SVGID_135_)">
			<defs>
				<rect id="SVGID_136_" x="570.771" y="257.657" width="89.414" height="40.017"/>
			</defs>
			<clipPath id="SVGID_137_">
				<use xlink:href="#SVGID_136_"  overflow="visible"/>
			</clipPath>
			<g transform="matrix(1 0 0 1 2.614053e-005 1.279567e-005)" clip-path="url(#SVGID_137_)">
				
					<image overflow="visible" width="17" height="8" xlink:href="CFF3ABB6.jpg"  transform="matrix(5.2595 0 0 -5.002 570.7715 297.6733)">
				</image>
			</g>
		</g>
	</g>
	<g>
		<defs>
			<path id="SVGID_138_" d="M570.862,270.161c0,0-4.982,0.918-2.962,3.556c0,0,0.184,0.713,2.227,0.713
				c1.025,0,2.518-0.177,4.695-0.713c5.944-1.484,58.783-14.386,76.351-31.966c-0.729-1.301-1.492-2.595-2.298-3.867
				C640.377,246.65,617.028,259.465,570.862,270.161"/>
		</defs>
		<clipPath id="SVGID_139_">
			<use xlink:href="#SVGID_138_"  overflow="visible"/>
		</clipPath>
		<g clip-path="url(#SVGID_139_)">
			<defs>
				<rect id="SVGID_140_" x="565.143" y="237.021" width="86.912" height="38.145"/>
			</defs>
			<clipPath id="SVGID_141_">
				<use xlink:href="#SVGID_140_"  overflow="visible"/>
			</clipPath>
			<g transform="matrix(1 0 0 1 3.397185e-006 9.892325e-006)" clip-path="url(#SVGID_141_)">
				
					<image overflow="visible" width="17" height="8" xlink:href="CFF3AB8D.jpg"  transform="matrix(5.1123 0 0 -4.7675 565.1426 275.1665)">
				</image>
			</g>
		</g>
	</g>
	<g>
		<defs>
			<path id="SVGID_142_" d="M593.27,338.199c-14.243,2.559-26.154,3.619-36.587,3.619c-15.841,0-28.297-2.438-40.405-5.76
				c5.293,6.121,11.571,11.542,18.73,16.003c0.007,0,0.007,0.007,0.017,0.007c0.134,0.085,0.281,0.17,0.417,0.262
				c0.007,0.007,0.027,0.014,0.048,0.028c0.12,0.077,0.256,0.148,0.39,0.24c0.021,0.014,0.043,0.028,0.063,0.035
				c0.12,0.07,0.247,0.142,0.367,0.219c0.027,0.028,0.057,0.043,0.098,0.057c0.106,0.063,0.228,0.134,0.341,0.206
				c0.043,0.021,0.077,0.049,0.113,0.07c0.106,0.063,0.22,0.12,0.324,0.184c0.043,0.028,0.086,0.05,0.143,0.078
				c0.098,0.063,0.197,0.127,0.311,0.184c0.05,0.029,0.091,0.057,0.147,0.085c0.087,0.055,0.19,0.112,0.284,0.162
				c0.057,0.035,0.113,0.063,0.177,0.099c0.091,0.05,0.19,0.106,0.283,0.155c0.055,0.036,0.111,0.063,0.168,0.1
				c0.1,0.049,0.19,0.099,0.276,0.155c0.063,0.035,0.134,0.07,0.197,0.105c0.086,0.043,0.177,0.092,0.271,0.142
				c0.063,0.028,0.127,0.078,0.19,0.105c0.091,0.043,0.177,0.1,0.268,0.142c0.063,0.028,0.136,0.071,0.199,0.106
				c0.084,0.049,0.168,0.092,0.261,0.134c0.07,0.042,0.134,0.079,0.204,0.114c0.093,0.049,0.184,0.092,0.271,0.134
				c0.063,0.043,0.141,0.071,0.204,0.106c0.149,0.085,0.311,0.162,0.46,0.24c31.483,15.982,68.35,9.953,93.117-12.329
				c1.677-1.526,3.286-3.131,4.85-4.827c7.529-8.123,13.126-17.341,16.81-27.11C641.296,322.795,614.527,334.389,593.27,338.199"/>
		</defs>
		<clipPath id="SVGID_143_">
			<use xlink:href="#SVGID_142_"  overflow="visible"/>
		</clipPath>
		<g clip-path="url(#SVGID_143_)">
			<defs>
				<rect id="SVGID_144_" x="515.125" y="310.807" width="141.936" height="55.017"/>
			</defs>
			<clipPath id="SVGID_145_">
				<use xlink:href="#SVGID_144_"  overflow="visible"/>
			</clipPath>
			<g transform="matrix(1 0 0 1 -1.340953e-005 -5.655456e-006)" clip-path="url(#SVGID_145_)">
				
					<image overflow="visible" width="27" height="11" xlink:href="CFF3AB8E.jpg"  transform="matrix(5.2568 0 0 -5.002 515.125 365.8242)">
				</image>
			</g>
		</g>
	</g>
	<g>
		<defs>
			<path id="SVGID_146_" d="M579.678,315.706c0,0-5.282,0.621-4.871,2.651c0.22,1.074,1.358,1.371,2.614,1.371
				c1.104,0,2.313-0.233,3.068-0.354c9.601-1.646,59.287-12.554,80.882-30.912c0.114-1.555,0.2-3.125,0.221-4.694
				C651.851,292.867,625.674,306.199,579.678,315.706"/>
		</defs>
		<clipPath id="SVGID_147_">
			<use xlink:href="#SVGID_146_"  overflow="visible"/>
		</clipPath>
		<g clip-path="url(#SVGID_147_)">
			<defs>
				<rect id="SVGID_148_" x="573.273" y="282.667" width="89.413" height="38.144"/>
			</defs>
			<clipPath id="SVGID_149_">
				<use xlink:href="#SVGID_148_"  overflow="visible"/>
			</clipPath>
			<g transform="matrix(1 0 0 1 5.915346e-006 -1.943689e-005)" clip-path="url(#SVGID_149_)">
				
					<image overflow="visible" width="17" height="8" xlink:href="CFF3AB8C.jpg"  transform="matrix(5.2595 0 0 -4.7675 573.2734 320.8101)">
				</image>
			</g>
		</g>
	</g>
</g>
</svg>
